<svg width="33" height="38" viewBox="0 0 33 38" fill="none" xmlns="http://www.w3.org/2000/svg">
<path d="M12.4032 30.9038C12.9294 30.7361 13.22 30.1735 13.0523 29.6473C12.8845 29.1211 12.322 28.8306 11.7958 28.9983L12.4032 30.9038ZM2.25679 23.3454L1.29032 23.0886L0.776742 25.0216L1.74321 25.2784L2.25679 23.3454ZM23.0398 37V38H25.0398V37H23.0398ZM23.0448 22.9021L22.9366 21.908C22.5545 21.9495 22.2301 22.2064 22.102 22.5688C21.9738 22.9311 22.0647 23.3349 22.3358 23.6073L23.0448 22.9021ZM32 12.3841H33L33 12.3809L32 12.3841ZM29.6789 6.72727L28.7452 6.36899C28.6047 6.73518 28.6912 7.14972 28.9665 7.42912L29.6789 6.72727ZM29.5395 1.04053L30.4544 0.636809C30.3349 0.366032 30.1016 0.162095 29.8173 0.0798824L29.5395 1.04053ZM23.4868 3.27328L23.2317 4.24021C23.5055 4.31242 23.797 4.26522 24.034 4.11031L23.4868 3.27328ZM12.6525 3.27328L12.1055 4.11042C12.3424 4.26524 12.6339 4.3124 12.9075 4.24021L12.6525 3.27328ZM6.59973 1.04053L6.32171 0.0799531C6.0375 0.162213 5.8043 0.366113 5.68485 0.636809L6.59973 1.04053ZM6.46043 6.72727L7.17269 7.42918C7.44803 7.14979 7.53458 6.73521 7.39404 6.36899L6.46043 6.72727ZM4.13928 12.4299H5.13928L5.13928 12.4273L4.13928 12.4299ZM13.0945 22.9021L13.8047 23.6062C14.0735 23.335 14.1645 22.9344 14.0391 22.5737C13.9137 22.213 13.5939 21.9553 13.2148 21.9094L13.0945 22.9021ZM12.0995 27.1315H13.0995C13.0995 27.1073 13.0986 27.0832 13.0969 27.0591L12.0995 27.1315ZM11.0995 37V38H13.0995V37H11.0995ZM11.7958 28.9983C10.0647 29.5501 8.9137 29.5052 8.10943 29.2366C7.30711 28.9686 6.70893 28.4316 6.1672 27.7169C5.89422 27.3568 5.64587 26.9654 5.39286 26.5509C5.14863 26.1508 4.8859 25.7047 4.61841 25.3055C4.09614 24.526 3.38198 23.6444 2.25679 23.3454L1.74321 25.2784C2.11031 25.3759 2.47183 25.6948 2.9569 26.4187C3.19309 26.7712 3.41694 27.1525 3.68574 27.5929C3.94575 28.0189 4.23688 28.4812 4.57335 28.9251C5.25053 29.8184 6.15117 30.6912 7.47584 31.1336C8.79856 31.5754 10.4028 31.5415 12.4032 30.9038L11.7958 28.9983ZM25.0398 26.9552C25.0398 25.3157 25.1432 23.5936 23.7537 22.1969L22.3358 23.6073C23.0324 24.3076 23.0398 25.0703 23.0398 26.9552H25.0398ZM23.1529 23.8962C25.6385 23.6258 28.1532 23.0266 30.0299 21.2621C31.9349 19.4709 33 16.6593 33 12.3841H31C31 16.3455 30.0174 18.5286 28.6599 19.805C27.2739 21.1082 25.311 21.6497 22.9366 21.908L23.1529 23.8962ZM33 12.3809C32.9924 9.99956 32.0562 7.71525 30.3912 6.02542L28.9665 7.42912C30.2619 8.74386 30.9941 10.5255 31 12.3872L33 12.3809ZM30.6125 7.08555C31.0087 6.05314 31.1986 4.95187 31.1715 3.8453L29.1721 3.89427C29.1928 4.7399 29.0476 5.58106 28.7452 6.36899L30.6125 7.08555ZM31.1715 3.8453C31.1443 2.73872 30.9008 1.64823 30.4544 0.636809L28.6247 1.44425C28.9652 2.2159 29.1513 3.04865 29.1721 3.89427L31.1715 3.8453ZM29.5395 1.04053C29.8173 0.0798824 29.8164 0.0796081 29.8154 0.0793328C29.8151 0.0792385 29.8141 0.0789623 29.8135 0.0787747C29.8121 0.0783998 29.8108 0.0780193 29.8094 0.0776336C29.8067 0.0768621 29.8038 0.0760694 29.8008 0.0752575C29.7949 0.0736334 29.7884 0.0719326 29.7815 0.0701698C29.7677 0.0666441 29.752 0.0628732 29.7345 0.0589777C29.6993 0.0511839 29.6567 0.0429071 29.6065 0.0350956C29.506 0.0194577 29.3757 0.0057832 29.2149 0.00143677C28.8927 -0.00726962 28.4521 0.0215562 27.886 0.143959C26.7554 0.388425 25.1295 1.00481 22.9397 2.43625L24.034 4.11031C26.0685 2.78033 27.469 2.28034 28.3087 2.09878C28.7277 2.00818 29.0082 1.99658 29.1608 2.00071C29.2374 2.00278 29.283 2.00883 29.299 2.01132C29.307 2.01257 29.3078 2.01295 29.3015 2.01156C29.2984 2.01086 29.2935 2.00972 29.2868 2.00802C29.2835 2.00718 29.2798 2.00619 29.2756 2.00506C29.2735 2.00449 29.2713 2.00388 29.269 2.00324C29.2679 2.00291 29.2667 2.00258 29.2655 2.00224C29.2649 2.00206 29.2639 2.0018 29.2636 2.00171C29.2627 2.00145 29.2618 2.00118 29.5395 1.04053ZM23.7419 2.30636C20.0226 1.32524 16.1167 1.32524 12.3974 2.30636L12.9075 4.24021C16.2925 3.34729 19.8468 3.34729 23.2317 4.24021L23.7419 2.30636ZM13.1995 2.43615C11.0089 1.00479 9.38304 0.388433 8.25269 0.143969C7.68672 0.0215648 7.24624 -0.00727189 6.92414 0.00143719C6.76334 0.00578499 6.63312 0.0194643 6.53262 0.0351133C6.48241 0.0429303 6.43979 0.0512142 6.40463 0.0590168C6.38705 0.0629168 6.37136 0.0666924 6.35754 0.0702234C6.35063 0.0719888 6.3442 0.0736924 6.33822 0.0753192C6.33524 0.0761327 6.33237 0.0769268 6.32962 0.0776997C6.32824 0.0780862 6.3269 0.0784674 6.32558 0.078843C6.32492 0.079031 6.32395 0.0793079 6.32362 0.0794023C6.32267 0.0796782 6.32171 0.0799531 6.59973 1.04053C6.87775 2.00111 6.87681 2.00138 6.87588 2.00164C6.87558 2.00173 6.87465 2.002 6.87405 2.00217C6.87284 2.00251 6.87167 2.00285 6.87051 2.00317C6.86821 2.00382 6.86601 2.00442 6.86392 2.00499C6.85973 2.00613 6.85598 2.00712 6.85265 2.00797C6.846 2.00967 6.84109 2.01081 6.83792 2.01152C6.83159 2.01292 6.83233 2.01255 6.84033 2.0113C6.85623 2.00882 6.90172 2.00277 6.9782 2.00071C7.13066 1.99658 7.41097 2.00817 7.82992 2.09877C8.66941 2.28033 10.0699 2.78035 12.1055 4.11042L13.1995 2.43615ZM5.68485 0.636809C5.23853 1.64823 4.99493 2.73872 4.96782 3.8453L6.96723 3.89427C6.98794 3.04865 7.1741 2.2159 7.51461 1.44425L5.68485 0.636809ZM4.96782 3.8453C4.94072 4.95187 5.13062 6.05314 5.52681 7.08555L7.39404 6.36899C7.09167 5.58106 6.94651 4.7399 6.96723 3.89427L4.96782 3.8453ZM5.74816 6.02536C4.91741 6.86836 4.25977 7.86829 3.81233 8.96757L5.66476 9.72157C6.01391 8.86377 6.52653 8.08487 7.17269 7.42918L5.74816 6.02536ZM3.81233 8.96757C3.36489 10.0668 3.13628 11.2442 3.13928 12.4324L5.13928 12.4273C5.13693 11.4989 5.31559 10.5794 5.66476 9.72157L3.81233 8.96757ZM3.13928 12.4299C3.13928 16.678 4.20584 19.4636 6.11215 21.2427C7.98611 22.9915 10.4971 23.5948 12.9743 23.8948L13.2148 21.9094C10.832 21.6208 8.86538 21.0764 7.4767 19.7805C6.12038 18.5147 5.13928 16.3586 5.13928 12.4299H3.13928ZM12.3844 22.198C11.6768 22.9117 11.3413 23.8268 11.1874 24.6907C11.0333 25.5561 11.0473 26.448 11.1021 27.2038L13.0969 27.0591C13.0473 26.3752 13.0442 25.6714 13.1564 25.0415C13.2689 24.4102 13.4832 23.9304 13.8047 23.6062L12.3844 22.198ZM11.0995 27.1315V37H13.0995V27.1315H11.0995ZM25.0398 37V26.9552H23.0398V37H25.0398Z" fill="#FFF0B5"/>
</svg>
