<svg width="32" height="29" viewBox="0 0 32 29" fill="none" xmlns="http://www.w3.org/2000/svg">
<path d="M30.9537 1L31.9515 0.934291C31.9251 0.532444 31.6601 0.185682 31.2794 0.0545223C30.8986 -0.0766374 30.4763 0.0334018 30.208 0.333702L30.9537 1ZM29.8141 7.38364C29.8141 6.83136 29.3664 6.38364 28.8141 6.38364C28.2619 6.38364 27.8141 6.83136 27.8141 7.38364H29.8141ZM16 9.30612V10.3061H17V9.30612H16ZM3.13955 1L4.07683 0.651432C3.93781 0.277614 3.58996 0.0221455 3.19167 0.00135911C2.79338 -0.0194273 2.42082 0.198443 2.24364 0.55576L3.13955 1ZM11.5 20.6327L12.21 21.3368C12.4533 21.0916 12.5527 20.7382 12.4731 20.4021C12.3934 20.066 12.146 19.7948 11.8186 19.6848L11.5 20.6327ZM1 24.7318V23.7318C0.560044 23.7318 0.171769 24.0193 0.0434673 24.4402C-0.0848349 24.861 0.0769786 25.3162 0.442102 25.5617L1 24.7318ZM27.1773 3.10001L26.4333 3.76819L26.7941 4.16999L27.328 4.08858L27.1773 3.10001ZM29.9559 1.06571C30.0667 2.74812 29.9651 3.78058 29.6893 4.5634C29.421 5.32503 28.9532 5.94861 28.1198 6.75263L29.5085 8.19198C30.4431 7.29031 31.1592 6.41001 31.5756 5.22804C31.9846 4.06726 32.0689 2.71641 31.9515 0.934291L29.9559 1.06571ZM29.8141 8.95552V7.4723H27.8141V8.95552H29.8141ZM29.8141 7.4723V7.38364H27.8141V7.4723H29.8141ZM15 7.79592V9.30612H17V7.79592H15ZM22.4834 0C18.2806 0 15 3.67898 15 7.79592H17C17 4.66582 19.4993 2 22.4834 2V0ZM27.8141 8.95552C27.8141 18.3339 19.9943 26.4286 10.75 26.4286V28.4286C21.1505 28.4286 29.8141 19.3861 29.8141 8.95552H27.8141ZM2.20227 1.34857C3.37381 4.4988 7.76657 10.3061 16 10.3061V8.30612C8.82866 8.30612 5.04484 3.25436 4.07683 0.651432L2.20227 1.34857ZM2.24364 0.55576C0.0108606 5.05865 -0.378363 9.46514 1.18101 13.2223C2.74085 16.9805 6.17036 19.8962 11.1814 21.5805L11.8186 19.6848C7.20166 18.1329 4.3114 15.5472 3.02823 12.4556C1.7446 9.36284 1.98914 5.57109 4.03546 1.44424L2.24364 0.55576ZM10.79 19.9285C9.5053 21.2239 5.80926 23.7318 1 23.7318V25.7318C6.46058 25.7318 10.642 22.918 12.21 21.3368L10.79 19.9285ZM27.9213 2.43183C26.5823 0.940897 24.6421 0 22.4834 0V2C24.0479 2 25.4555 2.67952 26.4333 3.76819L27.9213 2.43183ZM27.328 4.08858C28.9424 3.84241 30.5179 2.98861 31.6994 1.6663L30.208 0.333702C29.3227 1.32447 28.1619 1.93831 27.0265 2.11143L27.328 4.08858ZM0.442102 25.5617C3.86838 27.865 7.16758 28.4286 10.75 28.4286V26.4286C7.41782 26.4286 4.55027 25.9135 1.5579 23.9019L0.442102 25.5617Z" fill="#FFF0B5"/>
</svg>
