<svg width="420" height="386" viewBox="0 0 420 386" fill="none" xmlns="http://www.w3.org/2000/svg">
<path d="M200.88 7.6H206.86V34H200.88V7.6Z" fill="#909590"/>
<path d="M326.74 72.38H317.62V83H311.66V56.6H317.62V67.16H326.74V56.6H332.68V83H326.74V72.38ZM345.767 56.6H351.707L362.127 83H355.747L353.827 77.7H343.667L341.727 83H335.327L345.767 56.6ZM345.667 72.46H351.847L348.787 63.8H348.727L345.667 72.46ZM375.988 83H369.228L359.828 56.6H366.568L372.608 75.38L378.648 56.6H385.388L375.988 83ZM388.34 56.6H405.2V61.84H394.3V67.22H405.1V72.3H394.3V77.76H405.2V83H388.34V56.6Z" fill="#909590"/>
<path d="M257.2 111.08L257.64 111.16V132H251.66V105.6H259.82L270.52 126.4L270.08 126.48V105.6H276.06V132H267.86L257.2 111.08ZM285.946 118.78C285.946 120.287 286.253 121.653 286.866 122.88C287.493 124.093 288.353 125.06 289.446 125.78C290.553 126.5 291.833 126.86 293.286 126.86C294.74 126.86 296.013 126.5 297.106 125.78C298.213 125.06 299.073 124.093 299.686 122.88C300.313 121.653 300.626 120.287 300.626 118.78C300.626 117.273 300.313 115.913 299.686 114.7C299.073 113.487 298.213 112.52 297.106 111.8C296.013 111.067 294.74 110.7 293.286 110.7C291.833 110.7 290.553 111.067 289.446 111.8C288.353 112.52 287.493 113.487 286.866 114.7C286.253 115.913 285.946 117.273 285.946 118.78ZM279.726 118.78C279.726 116.86 280.066 115.073 280.746 113.42C281.426 111.753 282.38 110.3 283.606 109.06C284.833 107.82 286.273 106.853 287.926 106.16C289.58 105.467 291.366 105.12 293.286 105.12C295.233 105.12 297.026 105.467 298.666 106.16C300.32 106.853 301.753 107.82 302.966 109.06C304.193 110.3 305.14 111.753 305.806 113.42C306.486 115.073 306.826 116.86 306.826 118.78C306.826 120.713 306.5 122.513 305.846 124.18C305.193 125.833 304.26 127.287 303.046 128.54C301.833 129.78 300.4 130.747 298.746 131.44C297.093 132.133 295.273 132.48 293.286 132.48C291.26 132.48 289.413 132.133 287.746 131.44C286.093 130.747 284.666 129.78 283.466 128.54C282.266 127.287 281.34 125.833 280.686 124.18C280.046 122.513 279.726 120.713 279.726 118.78Z" fill="#909590"/>
<path d="M164.88 154.6H170.86V181H164.88V154.6ZM175.54 154.6H183.48C186.294 154.6 188.62 155.167 190.46 156.3C192.314 157.42 193.7 158.973 194.62 160.96C195.54 162.947 196 165.22 196 167.78C196 170.353 195.54 172.633 194.62 174.62C193.7 176.607 192.314 178.167 190.46 179.3C188.62 180.433 186.294 181 183.48 181H175.54V154.6ZM181.5 159.9V175.7H182.94C184.447 175.7 185.694 175.36 186.68 174.68C187.667 173.987 188.407 173.047 188.9 171.86C189.407 170.66 189.66 169.313 189.66 167.82C189.66 166.313 189.414 164.967 188.92 163.78C188.44 162.58 187.7 161.633 186.7 160.94C185.7 160.247 184.447 159.9 182.94 159.9H181.5ZM199.504 154.6H216.364V159.84H205.464V165.22H216.264V170.3H205.464V175.76H216.364V181H199.504V154.6ZM228.689 154.6H234.629L245.049 181H238.669L236.749 175.7H226.589L224.649 181H218.249L228.689 154.6ZM228.589 170.46H234.769L231.709 161.8H231.649L228.589 170.46Z" fill="#909590"/>
<path d="M84.7 230H77.52L73.04 211.58H74.12L69.64 230H62.42L56.4 203.6H63.26L66.44 222.12H66.36L71.32 203.6H75.82L80.8 222.12H80.72L83.9 203.6H90.76L84.7 230ZM109.342 219.38H100.222V230H94.2616V203.6H100.222V214.16H109.342V203.6H115.282V230H109.342V219.38ZM128.368 203.6H134.308L144.728 230H138.348L136.428 224.7H126.268L124.328 230H117.928L128.368 203.6ZM128.268 219.46H134.448L131.388 210.8H131.328L128.268 219.46ZM149.182 208.84H142.882V203.6H161.442V208.84H155.162V230H149.182V208.84Z" fill="#909590"/>
<path d="M15.58 257.84H9.28V252.6H27.84V257.84H21.56V279H15.58V257.84ZM35.415 265.78C35.415 267.287 35.7217 268.653 36.335 269.88C36.9617 271.093 37.8217 272.06 38.915 272.78C40.0217 273.5 41.3017 273.86 42.755 273.86C44.2083 273.86 45.4817 273.5 46.575 272.78C47.6817 272.06 48.5417 271.093 49.155 269.88C49.7817 268.653 50.095 267.287 50.095 265.78C50.095 264.273 49.7817 262.913 49.155 261.7C48.5417 260.487 47.6817 259.52 46.575 258.8C45.4817 258.067 44.2083 257.7 42.755 257.7C41.3017 257.7 40.0217 258.067 38.915 258.8C37.8217 259.52 36.9617 260.487 36.335 261.7C35.7217 262.913 35.415 264.273 35.415 265.78ZM29.195 265.78C29.195 263.86 29.535 262.073 30.215 260.42C30.895 258.753 31.8483 257.3 33.075 256.06C34.3017 254.82 35.7417 253.853 37.395 253.16C39.0483 252.467 40.835 252.12 42.755 252.12C44.7017 252.12 46.495 252.467 48.135 253.16C49.7883 253.853 51.2217 254.82 52.435 256.06C53.6617 257.3 54.6083 258.753 55.275 260.42C55.955 262.073 56.295 263.86 56.295 265.78C56.295 267.713 55.9683 269.513 55.315 271.18C54.6617 272.833 53.7283 274.287 52.515 275.54C51.3017 276.78 49.8683 277.747 48.215 278.44C46.5617 279.133 44.7417 279.48 42.755 279.48C40.7283 279.48 38.8817 279.133 37.215 278.44C35.5617 277.747 34.135 276.78 32.935 275.54C31.735 274.287 30.8083 272.833 30.155 271.18C29.515 269.513 29.195 267.713 29.195 265.78Z" fill="#909590"/>
<path d="M60.7 301.6H70.3C71.9933 301.6 73.52 301.9 74.88 302.5C76.24 303.087 77.32 303.987 78.12 305.2C78.9333 306.4 79.34 307.907 79.34 309.72C79.34 311.52 78.9333 313.053 78.12 314.32C77.32 315.573 76.24 316.533 74.88 317.2C73.52 317.853 71.9933 318.18 70.3 318.18H66.68V328H60.7V301.6ZM66.68 313.46H68.64C69.4533 313.46 70.18 313.34 70.82 313.1C71.4733 312.86 71.9933 312.48 72.38 311.96C72.7667 311.427 72.96 310.727 72.96 309.86C72.96 308.98 72.7667 308.287 72.38 307.78C71.9933 307.26 71.4733 306.887 70.82 306.66C70.18 306.433 69.4533 306.32 68.64 306.32H66.68V313.46ZM82.9294 301.6H88.9094V322.76H98.4894V328H82.9294V301.6ZM110.939 301.6H116.879L127.299 328H120.919L118.999 322.7H108.839L106.899 328H100.499L110.939 301.6ZM110.839 317.46H117.019L113.959 308.8H113.899L110.839 317.46ZM142.218 322.56C143.445 322.56 144.558 322.38 145.558 322.02C146.571 321.66 147.325 321.307 147.818 320.96L150.378 326.04C149.751 326.573 148.678 327.113 147.158 327.66C145.651 328.207 143.858 328.48 141.778 328.48C139.831 328.48 138.005 328.14 136.298 327.46C134.591 326.78 133.085 325.827 131.778 324.6C130.485 323.36 129.465 321.913 128.718 320.26C127.985 318.593 127.618 316.787 127.618 314.84C127.618 312.893 127.985 311.087 128.718 309.42C129.451 307.74 130.465 306.28 131.758 305.04C133.065 303.8 134.571 302.84 136.278 302.16C137.998 301.467 139.831 301.12 141.778 301.12C143.858 301.12 145.651 301.393 147.158 301.94C148.678 302.487 149.751 303.027 150.378 303.56L147.818 308.64C147.325 308.28 146.571 307.927 145.558 307.58C144.558 307.22 143.445 307.04 142.218 307.04C140.858 307.04 139.671 307.253 138.658 307.68C137.645 308.093 136.798 308.667 136.118 309.4C135.438 310.133 134.931 310.96 134.598 311.88C134.265 312.8 134.098 313.767 134.098 314.78C134.098 315.807 134.265 316.787 134.598 317.72C134.931 318.64 135.438 319.467 136.118 320.2C136.798 320.933 137.645 321.513 138.658 321.94C139.671 322.353 140.858 322.56 142.218 322.56ZM154.019 301.6H170.879V306.84H159.979V312.22H170.779V317.3H159.979V322.76H170.879V328H154.019V301.6Z" fill="#909590"/>
<path d="M175.74 366.38H166.62V377H160.66V350.6H166.62V361.16H175.74V350.6H181.68V377H175.74V366.38ZM186.207 350.6H203.067V355.84H192.167V361.22H202.967V366.3H192.167V371.76H203.067V377H186.207V350.6ZM207.454 350.6H218.214C219.747 350.6 221.114 350.92 222.314 351.56C223.514 352.2 224.461 353.127 225.154 354.34C225.861 355.54 226.214 356.973 226.214 358.64C226.214 360.307 225.914 361.673 225.314 362.74C224.727 363.793 224.021 364.587 223.194 365.12C222.367 365.64 221.601 365.953 220.894 366.06L227.314 377H220.594L214.874 366.52H213.434V377H207.454V350.6ZM213.434 362.38H216.074C217.141 362.38 218.074 362.12 218.874 361.6C219.674 361.08 220.074 360.16 220.074 358.84C220.074 357.52 219.681 356.607 218.894 356.1C218.107 355.58 217.181 355.32 216.114 355.32H213.434V362.38ZM231.246 350.6H248.106V355.84H237.206V361.22H248.006V366.3H237.206V371.76H248.106V377H231.246V350.6Z" fill="#909590"/>
<path d="M16.74 72.38H7.62V83H1.66V56.6H7.62V67.16H16.74V56.6H22.68V83H16.74V72.38ZM35.7669 56.6H41.7069L52.1269 83H45.7469L43.8269 77.7H33.6669L31.7269 83H25.3269L35.7669 56.6ZM35.6669 72.46H41.8469L38.7869 63.8H38.7269L35.6669 72.46ZM65.9875 83H59.2275L49.8275 56.6H56.5675L62.6075 75.38L68.6475 56.6H75.3875L65.9875 83ZM78.3397 56.6H95.1997V61.84H84.2997V67.22H95.0997V72.3H84.2997V77.76H95.1997V83H78.3397V56.6Z" fill="#909590"/>
<path d="M107.2 111.08L107.64 111.16V132H101.66V105.6H109.82L120.52 126.4L120.08 126.48V105.6H126.06V132H117.86L107.2 111.08ZM135.946 118.78C135.946 120.287 136.253 121.653 136.866 122.88C137.493 124.093 138.353 125.06 139.446 125.78C140.553 126.5 141.833 126.86 143.286 126.86C144.74 126.86 146.013 126.5 147.106 125.78C148.213 125.06 149.073 124.093 149.686 122.88C150.313 121.653 150.626 120.287 150.626 118.78C150.626 117.273 150.313 115.913 149.686 114.7C149.073 113.487 148.213 112.52 147.106 111.8C146.013 111.067 144.74 110.7 143.286 110.7C141.833 110.7 140.553 111.067 139.446 111.8C138.353 112.52 137.493 113.487 136.866 114.7C136.253 115.913 135.946 117.273 135.946 118.78ZM129.726 118.78C129.726 116.86 130.066 115.073 130.746 113.42C131.426 111.753 132.38 110.3 133.606 109.06C134.833 107.82 136.273 106.853 137.926 106.16C139.58 105.467 141.366 105.12 143.286 105.12C145.233 105.12 147.026 105.467 148.666 106.16C150.32 106.853 151.753 107.82 152.966 109.06C154.193 110.3 155.14 111.753 155.806 113.42C156.486 115.073 156.826 116.86 156.826 118.78C156.826 120.713 156.5 122.513 155.846 124.18C155.193 125.833 154.26 127.287 153.046 128.54C151.833 129.78 150.4 130.747 148.746 131.44C147.093 132.133 145.273 132.48 143.286 132.48C141.26 132.48 139.413 132.133 137.746 131.44C136.093 130.747 134.666 129.78 133.466 128.54C132.266 127.287 131.34 125.833 130.686 124.18C130.046 122.513 129.726 120.713 129.726 118.78Z" fill="#909590"/>
<path d="M274.7 230H267.52L263.04 211.58H264.12L259.64 230H252.42L246.4 203.6H253.26L256.44 222.12H256.36L261.32 203.6H265.82L270.8 222.12H270.72L273.9 203.6H280.76L274.7 230ZM299.342 219.38H290.222V230H284.262V203.6H290.222V214.16H299.342V203.6H305.282V230H299.342V219.38ZM318.368 203.6H324.308L334.728 230H328.348L326.428 224.7H316.268L314.328 230H307.928L318.368 203.6ZM318.268 219.46H324.448L321.388 210.8H321.328L318.268 219.46ZM339.182 208.84H332.882V203.6H351.442V208.84H345.162V230H339.182V208.84Z" fill="#909590"/>
<path d="M356.58 257.84H350.28V252.6H368.84V257.84H362.56V279H356.58V257.84ZM376.415 265.78C376.415 267.287 376.722 268.653 377.335 269.88C377.962 271.093 378.822 272.06 379.915 272.78C381.022 273.5 382.302 273.86 383.755 273.86C385.208 273.86 386.482 273.5 387.575 272.78C388.682 272.06 389.542 271.093 390.155 269.88C390.782 268.653 391.095 267.287 391.095 265.78C391.095 264.273 390.782 262.913 390.155 261.7C389.542 260.487 388.682 259.52 387.575 258.8C386.482 258.067 385.208 257.7 383.755 257.7C382.302 257.7 381.022 258.067 379.915 258.8C378.822 259.52 377.962 260.487 377.335 261.7C376.722 262.913 376.415 264.273 376.415 265.78ZM370.195 265.78C370.195 263.86 370.535 262.073 371.215 260.42C371.895 258.753 372.848 257.3 374.075 256.06C375.302 254.82 376.742 253.853 378.395 253.16C380.048 252.467 381.835 252.12 383.755 252.12C385.702 252.12 387.495 252.467 389.135 253.16C390.788 253.853 392.222 254.82 393.435 256.06C394.662 257.3 395.608 258.753 396.275 260.42C396.955 262.073 397.295 263.86 397.295 265.78C397.295 267.713 396.968 269.513 396.315 271.18C395.662 272.833 394.728 274.287 393.515 275.54C392.302 276.78 390.868 277.747 389.215 278.44C387.562 279.133 385.742 279.48 383.755 279.48C381.728 279.48 379.882 279.133 378.215 278.44C376.562 277.747 375.135 276.78 373.935 275.54C372.735 274.287 371.808 272.833 371.155 271.18C370.515 269.513 370.195 267.713 370.195 265.78Z" fill="#909590"/>
<path d="M236.7 301.6H246.3C247.993 301.6 249.52 301.9 250.88 302.5C252.24 303.087 253.32 303.987 254.12 305.2C254.933 306.4 255.34 307.907 255.34 309.72C255.34 311.52 254.933 313.053 254.12 314.32C253.32 315.573 252.24 316.533 250.88 317.2C249.52 317.853 247.993 318.18 246.3 318.18H242.68V328H236.7V301.6ZM242.68 313.46H244.64C245.453 313.46 246.18 313.34 246.82 313.1C247.473 312.86 247.993 312.48 248.38 311.96C248.767 311.427 248.96 310.727 248.96 309.86C248.96 308.98 248.767 308.287 248.38 307.78C247.993 307.26 247.473 306.887 246.82 306.66C246.18 306.433 245.453 306.32 244.64 306.32H242.68V313.46ZM258.929 301.6H264.909V322.76H274.489V328H258.929V301.6ZM286.939 301.6H292.879L303.299 328H296.919L294.999 322.7H284.839L282.899 328H276.499L286.939 301.6ZM286.839 317.46H293.019L289.959 308.8H289.899L286.839 317.46ZM318.218 322.56C319.445 322.56 320.558 322.38 321.558 322.02C322.571 321.66 323.325 321.307 323.818 320.96L326.378 326.04C325.751 326.573 324.678 327.113 323.158 327.66C321.651 328.207 319.858 328.48 317.778 328.48C315.831 328.48 314.005 328.14 312.298 327.46C310.591 326.78 309.085 325.827 307.778 324.6C306.485 323.36 305.465 321.913 304.718 320.26C303.985 318.593 303.618 316.787 303.618 314.84C303.618 312.893 303.985 311.087 304.718 309.42C305.451 307.74 306.465 306.28 307.758 305.04C309.065 303.8 310.571 302.84 312.278 302.16C313.998 301.467 315.831 301.12 317.778 301.12C319.858 301.12 321.651 301.393 323.158 301.94C324.678 302.487 325.751 303.027 326.378 303.56L323.818 308.64C323.325 308.28 322.571 307.927 321.558 307.58C320.558 307.22 319.445 307.04 318.218 307.04C316.858 307.04 315.671 307.253 314.658 307.68C313.645 308.093 312.798 308.667 312.118 309.4C311.438 310.133 310.931 310.96 310.598 311.88C310.265 312.8 310.098 313.767 310.098 314.78C310.098 315.807 310.265 316.787 310.598 317.72C310.931 318.64 311.438 319.467 312.118 320.2C312.798 320.933 313.645 321.513 314.658 321.94C315.671 322.353 316.858 322.56 318.218 322.56ZM330.019 301.6H346.879V306.84H335.979V312.22H346.779V317.3H335.979V322.76H346.879V328H330.019V301.6Z" fill="#909590"/>
<path d="M211.88 7.6H217.86V34H211.88V7.6Z" fill="#909590"/>
<path d="M337.74 72.38H328.62V83H322.66V56.6H328.62V67.16H337.74V56.6H343.68V83H337.74V72.38ZM356.767 56.6H362.707L373.127 83H366.747L364.827 77.7H354.667L352.727 83H346.327L356.767 56.6ZM356.667 72.46H362.847L359.787 63.8H359.727L356.667 72.46ZM386.988 83H380.228L370.828 56.6H377.568L383.608 75.38L389.648 56.6H396.388L386.988 83ZM399.34 56.6H416.2V61.84H405.3V67.22H416.1V72.3H405.3V77.76H416.2V83H399.34V56.6Z" fill="#909590"/>
<path d="M268.2 111.08L268.64 111.16V132H262.66V105.6H270.82L281.52 126.4L281.08 126.48V105.6H287.06V132H278.86L268.2 111.08ZM296.946 118.78C296.946 120.287 297.253 121.653 297.866 122.88C298.493 124.093 299.353 125.06 300.446 125.78C301.553 126.5 302.833 126.86 304.286 126.86C305.74 126.86 307.013 126.5 308.106 125.78C309.213 125.06 310.073 124.093 310.686 122.88C311.313 121.653 311.626 120.287 311.626 118.78C311.626 117.273 311.313 115.913 310.686 114.7C310.073 113.487 309.213 112.52 308.106 111.8C307.013 111.067 305.74 110.7 304.286 110.7C302.833 110.7 301.553 111.067 300.446 111.8C299.353 112.52 298.493 113.487 297.866 114.7C297.253 115.913 296.946 117.273 296.946 118.78ZM290.726 118.78C290.726 116.86 291.066 115.073 291.746 113.42C292.426 111.753 293.38 110.3 294.606 109.06C295.833 107.82 297.273 106.853 298.926 106.16C300.58 105.467 302.366 105.12 304.286 105.12C306.233 105.12 308.026 105.467 309.666 106.16C311.32 106.853 312.753 107.82 313.966 109.06C315.193 110.3 316.14 111.753 316.806 113.42C317.486 115.073 317.826 116.86 317.826 118.78C317.826 120.713 317.5 122.513 316.846 124.18C316.193 125.833 315.26 127.287 314.046 128.54C312.833 129.78 311.4 130.747 309.746 131.44C308.093 132.133 306.273 132.48 304.286 132.48C302.26 132.48 300.413 132.133 298.746 131.44C297.093 130.747 295.666 129.78 294.466 128.54C293.266 127.287 292.34 125.833 291.686 124.18C291.046 122.513 290.726 120.713 290.726 118.78Z" fill="#909590"/>
<path d="M175.88 154.6H181.86V181H175.88V154.6ZM186.54 154.6H194.48C197.294 154.6 199.62 155.167 201.46 156.3C203.314 157.42 204.7 158.973 205.62 160.96C206.54 162.947 207 165.22 207 167.78C207 170.353 206.54 172.633 205.62 174.62C204.7 176.607 203.314 178.167 201.46 179.3C199.62 180.433 197.294 181 194.48 181H186.54V154.6ZM192.5 159.9V175.7H193.94C195.447 175.7 196.694 175.36 197.68 174.68C198.667 173.987 199.407 173.047 199.9 171.86C200.407 170.66 200.66 169.313 200.66 167.82C200.66 166.313 200.414 164.967 199.92 163.78C199.44 162.58 198.7 161.633 197.7 160.94C196.7 160.247 195.447 159.9 193.94 159.9H192.5ZM210.504 154.6H227.364V159.84H216.464V165.22H227.264V170.3H216.464V175.76H227.364V181H210.504V154.6ZM239.689 154.6H245.629L256.049 181H249.669L247.749 175.7H237.589L235.649 181H229.249L239.689 154.6ZM239.589 170.46H245.769L242.709 161.8H242.649L239.589 170.46Z" fill="#909590"/>
<path d="M95.7 230H88.52L84.04 211.58H85.12L80.64 230H73.42L67.4 203.6H74.26L77.44 222.12H77.36L82.32 203.6H86.82L91.8 222.12H91.72L94.9 203.6H101.76L95.7 230ZM120.342 219.38H111.222V230H105.262V203.6H111.222V214.16H120.342V203.6H126.282V230H120.342V219.38ZM139.368 203.6H145.308L155.728 230H149.348L147.428 224.7H137.268L135.328 230H128.928L139.368 203.6ZM139.268 219.46H145.448L142.388 210.8H142.328L139.268 219.46ZM160.182 208.84H153.882V203.6H172.442V208.84H166.162V230H160.182V208.84Z" fill="#909590"/>
<path d="M26.58 257.84H20.28V252.6H38.84V257.84H32.56V279H26.58V257.84ZM46.415 265.78C46.415 267.287 46.7217 268.653 47.335 269.88C47.9617 271.093 48.8217 272.06 49.915 272.78C51.0217 273.5 52.3017 273.86 53.755 273.86C55.2083 273.86 56.4817 273.5 57.575 272.78C58.6817 272.06 59.5417 271.093 60.155 269.88C60.7817 268.653 61.095 267.287 61.095 265.78C61.095 264.273 60.7817 262.913 60.155 261.7C59.5417 260.487 58.6817 259.52 57.575 258.8C56.4817 258.067 55.2083 257.7 53.755 257.7C52.3017 257.7 51.0217 258.067 49.915 258.8C48.8217 259.52 47.9617 260.487 47.335 261.7C46.7217 262.913 46.415 264.273 46.415 265.78ZM40.195 265.78C40.195 263.86 40.535 262.073 41.215 260.42C41.895 258.753 42.8483 257.3 44.075 256.06C45.3017 254.82 46.7417 253.853 48.395 253.16C50.0483 252.467 51.835 252.12 53.755 252.12C55.7017 252.12 57.495 252.467 59.135 253.16C60.7883 253.853 62.2217 254.82 63.435 256.06C64.6617 257.3 65.6083 258.753 66.275 260.42C66.955 262.073 67.295 263.86 67.295 265.78C67.295 267.713 66.9683 269.513 66.315 271.18C65.6617 272.833 64.7283 274.287 63.515 275.54C62.3017 276.78 60.8683 277.747 59.215 278.44C57.5617 279.133 55.7417 279.48 53.755 279.48C51.7283 279.48 49.8817 279.133 48.215 278.44C46.5617 277.747 45.135 276.78 43.935 275.54C42.735 274.287 41.8083 272.833 41.155 271.18C40.515 269.513 40.195 267.713 40.195 265.78Z" fill="#909590"/>
<path d="M71.7 301.6H81.3C82.9933 301.6 84.52 301.9 85.88 302.5C87.24 303.087 88.32 303.987 89.12 305.2C89.9333 306.4 90.34 307.907 90.34 309.72C90.34 311.52 89.9333 313.053 89.12 314.32C88.32 315.573 87.24 316.533 85.88 317.2C84.52 317.853 82.9933 318.18 81.3 318.18H77.68V328H71.7V301.6ZM77.68 313.46H79.64C80.4533 313.46 81.18 313.34 81.82 313.1C82.4733 312.86 82.9933 312.48 83.38 311.96C83.7667 311.427 83.96 310.727 83.96 309.86C83.96 308.98 83.7667 308.287 83.38 307.78C82.9933 307.26 82.4733 306.887 81.82 306.66C81.18 306.433 80.4533 306.32 79.64 306.32H77.68V313.46ZM93.9294 301.6H99.9094V322.76H109.489V328H93.9294V301.6ZM121.939 301.6H127.879L138.299 328H131.919L129.999 322.7H119.839L117.899 328H111.499L121.939 301.6ZM121.839 317.46H128.019L124.959 308.8H124.899L121.839 317.46ZM153.218 322.56C154.445 322.56 155.558 322.38 156.558 322.02C157.571 321.66 158.325 321.307 158.818 320.96L161.378 326.04C160.751 326.573 159.678 327.113 158.158 327.66C156.651 328.207 154.858 328.48 152.778 328.48C150.831 328.48 149.005 328.14 147.298 327.46C145.591 326.78 144.085 325.827 142.778 324.6C141.485 323.36 140.465 321.913 139.718 320.26C138.985 318.593 138.618 316.787 138.618 314.84C138.618 312.893 138.985 311.087 139.718 309.42C140.451 307.74 141.465 306.28 142.758 305.04C144.065 303.8 145.571 302.84 147.278 302.16C148.998 301.467 150.831 301.12 152.778 301.12C154.858 301.12 156.651 301.393 158.158 301.94C159.678 302.487 160.751 303.027 161.378 303.56L158.818 308.64C158.325 308.28 157.571 307.927 156.558 307.58C155.558 307.22 154.445 307.04 153.218 307.04C151.858 307.04 150.671 307.253 149.658 307.68C148.645 308.093 147.798 308.667 147.118 309.4C146.438 310.133 145.931 310.96 145.598 311.88C145.265 312.8 145.098 313.767 145.098 314.78C145.098 315.807 145.265 316.787 145.598 317.72C145.931 318.64 146.438 319.467 147.118 320.2C147.798 320.933 148.645 321.513 149.658 321.94C150.671 322.353 151.858 322.56 153.218 322.56ZM165.019 301.6H181.879V306.84H170.979V312.22H181.779V317.3H170.979V322.76H181.879V328H165.019V301.6Z" fill="#909590"/>
<path d="M186.74 366.38H177.62V377H171.66V350.6H177.62V361.16H186.74V350.6H192.68V377H186.74V366.38ZM197.207 350.6H214.067V355.84H203.167V361.22H213.967V366.3H203.167V371.76H214.067V377H197.207V350.6ZM218.454 350.6H229.214C230.747 350.6 232.114 350.92 233.314 351.56C234.514 352.2 235.461 353.127 236.154 354.34C236.861 355.54 237.214 356.973 237.214 358.64C237.214 360.307 236.914 361.673 236.314 362.74C235.727 363.793 235.021 364.587 234.194 365.12C233.367 365.64 232.601 365.953 231.894 366.06L238.314 377H231.594L225.874 366.52H224.434V377H218.454V350.6ZM224.434 362.38H227.074C228.141 362.38 229.074 362.12 229.874 361.6C230.674 361.08 231.074 360.16 231.074 358.84C231.074 357.52 230.681 356.607 229.894 356.1C229.107 355.58 228.181 355.32 227.114 355.32H224.434V362.38ZM242.246 350.6H259.106V355.84H248.206V361.22H259.006V366.3H248.206V371.76H259.106V377H242.246V350.6Z" fill="#909590"/>
<path d="M27.74 72.38H18.62V83H12.66V56.6H18.62V67.16H27.74V56.6H33.68V83H27.74V72.38ZM46.7669 56.6H52.7069L63.1269 83H56.7469L54.8269 77.7H44.6669L42.7269 83H36.3269L46.7669 56.6ZM46.6669 72.46H52.8469L49.7869 63.8H49.7269L46.6669 72.46ZM76.9875 83H70.2275L60.8275 56.6H67.5675L73.6075 75.38L79.6475 56.6H86.3875L76.9875 83ZM89.3397 56.6H106.2V61.84H95.2997V67.22H106.1V72.3H95.2997V77.76H106.2V83H89.3397V56.6Z" fill="#909590"/>
<path d="M118.2 111.08L118.64 111.16V132H112.66V105.6H120.82L131.52 126.4L131.08 126.48V105.6H137.06V132H128.86L118.2 111.08ZM146.946 118.78C146.946 120.287 147.253 121.653 147.866 122.88C148.493 124.093 149.353 125.06 150.446 125.78C151.553 126.5 152.833 126.86 154.286 126.86C155.74 126.86 157.013 126.5 158.106 125.78C159.213 125.06 160.073 124.093 160.686 122.88C161.313 121.653 161.626 120.287 161.626 118.78C161.626 117.273 161.313 115.913 160.686 114.7C160.073 113.487 159.213 112.52 158.106 111.8C157.013 111.067 155.74 110.7 154.286 110.7C152.833 110.7 151.553 111.067 150.446 111.8C149.353 112.52 148.493 113.487 147.866 114.7C147.253 115.913 146.946 117.273 146.946 118.78ZM140.726 118.78C140.726 116.86 141.066 115.073 141.746 113.42C142.426 111.753 143.38 110.3 144.606 109.06C145.833 107.82 147.273 106.853 148.926 106.16C150.58 105.467 152.366 105.12 154.286 105.12C156.233 105.12 158.026 105.467 159.666 106.16C161.32 106.853 162.753 107.82 163.966 109.06C165.193 110.3 166.14 111.753 166.806 113.42C167.486 115.073 167.826 116.86 167.826 118.78C167.826 120.713 167.5 122.513 166.846 124.18C166.193 125.833 165.26 127.287 164.046 128.54C162.833 129.78 161.4 130.747 159.746 131.44C158.093 132.133 156.273 132.48 154.286 132.48C152.26 132.48 150.413 132.133 148.746 131.44C147.093 130.747 145.666 129.78 144.466 128.54C143.266 127.287 142.34 125.833 141.686 124.18C141.046 122.513 140.726 120.713 140.726 118.78Z" fill="#909590"/>
<path d="M285.7 230H278.52L274.04 211.58H275.12L270.64 230H263.42L257.4 203.6H264.26L267.44 222.12H267.36L272.32 203.6H276.82L281.8 222.12H281.72L284.9 203.6H291.76L285.7 230ZM310.342 219.38H301.222V230H295.262V203.6H301.222V214.16H310.342V203.6H316.282V230H310.342V219.38ZM329.368 203.6H335.308L345.728 230H339.348L337.428 224.7H327.268L325.328 230H318.928L329.368 203.6ZM329.268 219.46H335.448L332.388 210.8H332.328L329.268 219.46ZM350.182 208.84H343.882V203.6H362.442V208.84H356.162V230H350.182V208.84Z" fill="#909590"/>
<path d="M367.58 257.84H361.28V252.6H379.84V257.84H373.56V279H367.58V257.84ZM387.415 265.78C387.415 267.287 387.722 268.653 388.335 269.88C388.962 271.093 389.822 272.06 390.915 272.78C392.022 273.5 393.302 273.86 394.755 273.86C396.208 273.86 397.482 273.5 398.575 272.78C399.682 272.06 400.542 271.093 401.155 269.88C401.782 268.653 402.095 267.287 402.095 265.78C402.095 264.273 401.782 262.913 401.155 261.7C400.542 260.487 399.682 259.52 398.575 258.8C397.482 258.067 396.208 257.7 394.755 257.7C393.302 257.7 392.022 258.067 390.915 258.8C389.822 259.52 388.962 260.487 388.335 261.7C387.722 262.913 387.415 264.273 387.415 265.78ZM381.195 265.78C381.195 263.86 381.535 262.073 382.215 260.42C382.895 258.753 383.848 257.3 385.075 256.06C386.302 254.82 387.742 253.853 389.395 253.16C391.048 252.467 392.835 252.12 394.755 252.12C396.702 252.12 398.495 252.467 400.135 253.16C401.788 253.853 403.222 254.82 404.435 256.06C405.662 257.3 406.608 258.753 407.275 260.42C407.955 262.073 408.295 263.86 408.295 265.78C408.295 267.713 407.968 269.513 407.315 271.18C406.662 272.833 405.728 274.287 404.515 275.54C403.302 276.78 401.868 277.747 400.215 278.44C398.562 279.133 396.742 279.48 394.755 279.48C392.728 279.48 390.882 279.133 389.215 278.44C387.562 277.747 386.135 276.78 384.935 275.54C383.735 274.287 382.808 272.833 382.155 271.18C381.515 269.513 381.195 267.713 381.195 265.78Z" fill="#909590"/>
<path d="M247.7 301.6H257.3C258.993 301.6 260.52 301.9 261.88 302.5C263.24 303.087 264.32 303.987 265.12 305.2C265.933 306.4 266.34 307.907 266.34 309.72C266.34 311.52 265.933 313.053 265.12 314.32C264.32 315.573 263.24 316.533 261.88 317.2C260.52 317.853 258.993 318.18 257.3 318.18H253.68V328H247.7V301.6ZM253.68 313.46H255.64C256.453 313.46 257.18 313.34 257.82 313.1C258.473 312.86 258.993 312.48 259.38 311.96C259.767 311.427 259.96 310.727 259.96 309.86C259.96 308.98 259.767 308.287 259.38 307.78C258.993 307.26 258.473 306.887 257.82 306.66C257.18 306.433 256.453 306.32 255.64 306.32H253.68V313.46ZM269.929 301.6H275.909V322.76H285.489V328H269.929V301.6ZM297.939 301.6H303.879L314.299 328H307.919L305.999 322.7H295.839L293.899 328H287.499L297.939 301.6ZM297.839 317.46H304.019L300.959 308.8H300.899L297.839 317.46ZM329.218 322.56C330.445 322.56 331.558 322.38 332.558 322.02C333.571 321.66 334.325 321.307 334.818 320.96L337.378 326.04C336.751 326.573 335.678 327.113 334.158 327.66C332.651 328.207 330.858 328.48 328.778 328.48C326.831 328.48 325.005 328.14 323.298 327.46C321.591 326.78 320.085 325.827 318.778 324.6C317.485 323.36 316.465 321.913 315.718 320.26C314.985 318.593 314.618 316.787 314.618 314.84C314.618 312.893 314.985 311.087 315.718 309.42C316.451 307.74 317.465 306.28 318.758 305.04C320.065 303.8 321.571 302.84 323.278 302.16C324.998 301.467 326.831 301.12 328.778 301.12C330.858 301.12 332.651 301.393 334.158 301.94C335.678 302.487 336.751 303.027 337.378 303.56L334.818 308.64C334.325 308.28 333.571 307.927 332.558 307.58C331.558 307.22 330.445 307.04 329.218 307.04C327.858 307.04 326.671 307.253 325.658 307.68C324.645 308.093 323.798 308.667 323.118 309.4C322.438 310.133 321.931 310.96 321.598 311.88C321.265 312.8 321.098 313.767 321.098 314.78C321.098 315.807 321.265 316.787 321.598 317.72C321.931 318.64 322.438 319.467 323.118 320.2C323.798 320.933 324.645 321.513 325.658 321.94C326.671 322.353 327.858 322.56 329.218 322.56ZM341.019 301.6H357.879V306.84H346.979V312.22H357.779V317.3H346.979V322.76H357.879V328H341.019V301.6Z" fill="#909590"/>
<path d="M206.88 1.6H212.86V28H206.88V1.6Z" fill="#50B6FF"/>
<path d="M332.74 66.38H323.62V77H317.66V50.6H323.62V61.16H332.74V50.6H338.68V77H332.74V66.38ZM351.767 50.6H357.707L368.127 77H361.747L359.827 71.7H349.667L347.727 77H341.327L351.767 50.6ZM351.667 66.46H357.847L354.787 57.8H354.727L351.667 66.46ZM381.988 77H375.228L365.828 50.6H372.568L378.608 69.38L384.648 50.6H391.388L381.988 77ZM394.34 50.6H411.2V55.84H400.3V61.22H411.1V66.3H400.3V71.76H411.2V77H394.34V50.6Z" fill="#50B6FF"/>
<path d="M263.2 105.08L263.64 105.16V126H257.66V99.6H265.82L276.52 120.4L276.08 120.48V99.6H282.06V126H273.86L263.2 105.08ZM291.946 112.78C291.946 114.287 292.253 115.653 292.866 116.88C293.493 118.093 294.353 119.06 295.446 119.78C296.553 120.5 297.833 120.86 299.286 120.86C300.74 120.86 302.013 120.5 303.106 119.78C304.213 119.06 305.073 118.093 305.686 116.88C306.313 115.653 306.626 114.287 306.626 112.78C306.626 111.273 306.313 109.913 305.686 108.7C305.073 107.487 304.213 106.52 303.106 105.8C302.013 105.067 300.74 104.7 299.286 104.7C297.833 104.7 296.553 105.067 295.446 105.8C294.353 106.52 293.493 107.487 292.866 108.7C292.253 109.913 291.946 111.273 291.946 112.78ZM285.726 112.78C285.726 110.86 286.066 109.073 286.746 107.42C287.426 105.753 288.38 104.3 289.606 103.06C290.833 101.82 292.273 100.853 293.926 100.16C295.58 99.4667 297.366 99.12 299.286 99.12C301.233 99.12 303.026 99.4667 304.666 100.16C306.32 100.853 307.753 101.82 308.966 103.06C310.193 104.3 311.14 105.753 311.806 107.42C312.486 109.073 312.826 110.86 312.826 112.78C312.826 114.713 312.5 116.513 311.846 118.18C311.193 119.833 310.26 121.287 309.046 122.54C307.833 123.78 306.4 124.747 304.746 125.44C303.093 126.133 301.273 126.48 299.286 126.48C297.26 126.48 295.413 126.133 293.746 125.44C292.093 124.747 290.666 123.78 289.466 122.54C288.266 121.287 287.34 119.833 286.686 118.18C286.046 116.513 285.726 114.713 285.726 112.78Z" fill="#50B6FF"/>
<path d="M170.88 148.6H176.86V175H170.88V148.6ZM181.54 148.6H189.48C192.294 148.6 194.62 149.167 196.46 150.3C198.314 151.42 199.7 152.973 200.62 154.96C201.54 156.947 202 159.22 202 161.78C202 164.353 201.54 166.633 200.62 168.62C199.7 170.607 198.314 172.167 196.46 173.3C194.62 174.433 192.294 175 189.48 175H181.54V148.6ZM187.5 153.9V169.7H188.94C190.447 169.7 191.694 169.36 192.68 168.68C193.667 167.987 194.407 167.047 194.9 165.86C195.407 164.66 195.66 163.313 195.66 161.82C195.66 160.313 195.414 158.967 194.92 157.78C194.44 156.58 193.7 155.633 192.7 154.94C191.7 154.247 190.447 153.9 188.94 153.9H187.5ZM205.504 148.6H222.364V153.84H211.464V159.22H222.264V164.3H211.464V169.76H222.364V175H205.504V148.6ZM234.689 148.6H240.629L251.049 175H244.669L242.749 169.7H232.589L230.649 175H224.249L234.689 148.6ZM234.589 164.46H240.769L237.709 155.8H237.649L234.589 164.46Z" fill="#50B6FF"/>
<path d="M90.7 224H83.52L79.04 205.58H80.12L75.64 224H68.42L62.4 197.6H69.26L72.44 216.12H72.36L77.32 197.6H81.82L86.8 216.12H86.72L89.9 197.6H96.76L90.7 224ZM115.342 213.38H106.222V224H100.262V197.6H106.222V208.16H115.342V197.6H121.282V224H115.342V213.38ZM134.368 197.6H140.308L150.728 224H144.348L142.428 218.7H132.268L130.328 224H123.928L134.368 197.6ZM134.268 213.46H140.448L137.388 204.8H137.328L134.268 213.46ZM155.182 202.84H148.882V197.6H167.442V202.84H161.162V224H155.182V202.84Z" fill="#FFF859"/>
<path d="M21.58 251.84H15.28V246.6H33.84V251.84H27.56V273H21.58V251.84ZM41.415 259.78C41.415 261.287 41.7217 262.653 42.335 263.88C42.9617 265.093 43.8217 266.06 44.915 266.78C46.0217 267.5 47.3017 267.86 48.755 267.86C50.2083 267.86 51.4817 267.5 52.575 266.78C53.6817 266.06 54.5417 265.093 55.155 263.88C55.7817 262.653 56.095 261.287 56.095 259.78C56.095 258.273 55.7817 256.913 55.155 255.7C54.5417 254.487 53.6817 253.52 52.575 252.8C51.4817 252.067 50.2083 251.7 48.755 251.7C47.3017 251.7 46.0217 252.067 44.915 252.8C43.8217 253.52 42.9617 254.487 42.335 255.7C41.7217 256.913 41.415 258.273 41.415 259.78ZM35.195 259.78C35.195 257.86 35.535 256.073 36.215 254.42C36.895 252.753 37.8483 251.3 39.075 250.06C40.3017 248.82 41.7417 247.853 43.395 247.16C45.0483 246.467 46.835 246.12 48.755 246.12C50.7017 246.12 52.495 246.467 54.135 247.16C55.7883 247.853 57.2217 248.82 58.435 250.06C59.6617 251.3 60.6083 252.753 61.275 254.42C61.955 256.073 62.295 257.86 62.295 259.78C62.295 261.713 61.9683 263.513 61.315 265.18C60.6617 266.833 59.7283 268.287 58.515 269.54C57.3017 270.78 55.8683 271.747 54.215 272.44C52.5617 273.133 50.7417 273.48 48.755 273.48C46.7283 273.48 44.8817 273.133 43.215 272.44C41.5617 271.747 40.135 270.78 38.935 269.54C37.735 268.287 36.8083 266.833 36.155 265.18C35.515 263.513 35.195 261.713 35.195 259.78Z" fill="#FFF859"/>
<path d="M66.7 295.6H76.3C77.9933 295.6 79.52 295.9 80.88 296.5C82.24 297.087 83.32 297.987 84.12 299.2C84.9333 300.4 85.34 301.907 85.34 303.72C85.34 305.52 84.9333 307.053 84.12 308.32C83.32 309.573 82.24 310.533 80.88 311.2C79.52 311.853 77.9933 312.18 76.3 312.18H72.68V322H66.7V295.6ZM72.68 307.46H74.64C75.4533 307.46 76.18 307.34 76.82 307.1C77.4733 306.86 77.9933 306.48 78.38 305.96C78.7667 305.427 78.96 304.727 78.96 303.86C78.96 302.98 78.7667 302.287 78.38 301.78C77.9933 301.26 77.4733 300.887 76.82 300.66C76.18 300.433 75.4533 300.32 74.64 300.32H72.68V307.46ZM88.9294 295.6H94.9094V316.76H104.489V322H88.9294V295.6ZM116.939 295.6H122.879L133.299 322H126.919L124.999 316.7H114.839L112.899 322H106.499L116.939 295.6ZM116.839 311.46H123.019L119.959 302.8H119.899L116.839 311.46ZM148.218 316.56C149.445 316.56 150.558 316.38 151.558 316.02C152.571 315.66 153.325 315.307 153.818 314.96L156.378 320.04C155.751 320.573 154.678 321.113 153.158 321.66C151.651 322.207 149.858 322.48 147.778 322.48C145.831 322.48 144.005 322.14 142.298 321.46C140.591 320.78 139.085 319.827 137.778 318.6C136.485 317.36 135.465 315.913 134.718 314.26C133.985 312.593 133.618 310.787 133.618 308.84C133.618 306.893 133.985 305.087 134.718 303.42C135.451 301.74 136.465 300.28 137.758 299.04C139.065 297.8 140.571 296.84 142.278 296.16C143.998 295.467 145.831 295.12 147.778 295.12C149.858 295.12 151.651 295.393 153.158 295.94C154.678 296.487 155.751 297.027 156.378 297.56L153.818 302.64C153.325 302.28 152.571 301.927 151.558 301.58C150.558 301.22 149.445 301.04 148.218 301.04C146.858 301.04 145.671 301.253 144.658 301.68C143.645 302.093 142.798 302.667 142.118 303.4C141.438 304.133 140.931 304.96 140.598 305.88C140.265 306.8 140.098 307.767 140.098 308.78C140.098 309.807 140.265 310.787 140.598 311.72C140.931 312.64 141.438 313.467 142.118 314.2C142.798 314.933 143.645 315.513 144.658 315.94C145.671 316.353 146.858 316.56 148.218 316.56ZM160.019 295.6H176.879V300.84H165.979V306.22H176.779V311.3H165.979V316.76H176.879V322H160.019V295.6Z" fill="#FFF859"/>
<path d="M181.74 360.38H172.62V371H166.66V344.6H172.62V355.16H181.74V344.6H187.68V371H181.74V360.38ZM192.207 344.6H209.067V349.84H198.167V355.22H208.967V360.3H198.167V365.76H209.067V371H192.207V344.6ZM213.454 344.6H224.214C225.747 344.6 227.114 344.92 228.314 345.56C229.514 346.2 230.461 347.127 231.154 348.34C231.861 349.54 232.214 350.973 232.214 352.64C232.214 354.307 231.914 355.673 231.314 356.74C230.727 357.793 230.021 358.587 229.194 359.12C228.367 359.64 227.601 359.953 226.894 360.06L233.314 371H226.594L220.874 360.52H219.434V371H213.454V344.6ZM219.434 356.38H222.074C223.141 356.38 224.074 356.12 224.874 355.6C225.674 355.08 226.074 354.16 226.074 352.84C226.074 351.52 225.681 350.607 224.894 350.1C224.107 349.58 223.181 349.32 222.114 349.32H219.434V356.38ZM237.246 344.6H254.106V349.84H243.206V355.22H254.006V360.3H243.206V365.76H254.106V371H237.246V344.6Z" fill="#FFF859"/>
<path d="M22.74 66.38H13.62V77H7.66V50.6H13.62V61.16H22.74V50.6H28.68V77H22.74V66.38ZM41.7669 50.6H47.7069L58.1269 77H51.7469L49.8269 71.7H39.6669L37.7269 77H31.3269L41.7669 50.6ZM41.6669 66.46H47.8469L44.7869 57.8H44.7269L41.6669 66.46ZM71.9875 77H65.2275L55.8275 50.6H62.5675L68.6075 69.38L74.6475 50.6H81.3875L71.9875 77ZM84.3397 50.6H101.2V55.84H90.2997V61.22H101.1V66.3H90.2997V71.76H101.2V77H84.3397V50.6Z" fill="#50B6FF"/>
<path d="M113.2 105.08L113.64 105.16V126H107.66V99.6H115.82L126.52 120.4L126.08 120.48V99.6H132.06V126H123.86L113.2 105.08ZM141.946 112.78C141.946 114.287 142.253 115.653 142.866 116.88C143.493 118.093 144.353 119.06 145.446 119.78C146.553 120.5 147.833 120.86 149.286 120.86C150.74 120.86 152.013 120.5 153.106 119.78C154.213 119.06 155.073 118.093 155.686 116.88C156.313 115.653 156.626 114.287 156.626 112.78C156.626 111.273 156.313 109.913 155.686 108.7C155.073 107.487 154.213 106.52 153.106 105.8C152.013 105.067 150.74 104.7 149.286 104.7C147.833 104.7 146.553 105.067 145.446 105.8C144.353 106.52 143.493 107.487 142.866 108.7C142.253 109.913 141.946 111.273 141.946 112.78ZM135.726 112.78C135.726 110.86 136.066 109.073 136.746 107.42C137.426 105.753 138.38 104.3 139.606 103.06C140.833 101.82 142.273 100.853 143.926 100.16C145.58 99.4667 147.366 99.12 149.286 99.12C151.233 99.12 153.026 99.4667 154.666 100.16C156.32 100.853 157.753 101.82 158.966 103.06C160.193 104.3 161.14 105.753 161.806 107.42C162.486 109.073 162.826 110.86 162.826 112.78C162.826 114.713 162.5 116.513 161.846 118.18C161.193 119.833 160.26 121.287 159.046 122.54C157.833 123.78 156.4 124.747 154.746 125.44C153.093 126.133 151.273 126.48 149.286 126.48C147.26 126.48 145.413 126.133 143.746 125.44C142.093 124.747 140.666 123.78 139.466 122.54C138.266 121.287 137.34 119.833 136.686 118.18C136.046 116.513 135.726 114.713 135.726 112.78Z" fill="#50B6FF"/>
<path d="M280.7 224H273.52L269.04 205.58H270.12L265.64 224H258.42L252.4 197.6H259.26L262.44 216.12H262.36L267.32 197.6H271.82L276.8 216.12H276.72L279.9 197.6H286.76L280.7 224ZM305.342 213.38H296.222V224H290.262V197.6H296.222V208.16H305.342V197.6H311.282V224H305.342V213.38ZM324.368 197.6H330.308L340.728 224H334.348L332.428 218.7H322.268L320.328 224H313.928L324.368 197.6ZM324.268 213.46H330.448L327.388 204.8H327.328L324.268 213.46ZM345.182 202.84H338.882V197.6H357.442V202.84H351.162V224H345.182V202.84Z" fill="#FFF859"/>
<path d="M362.58 251.84H356.28V246.6H374.84V251.84H368.56V273H362.58V251.84ZM382.415 259.78C382.415 261.287 382.722 262.653 383.335 263.88C383.962 265.093 384.822 266.06 385.915 266.78C387.022 267.5 388.302 267.86 389.755 267.86C391.208 267.86 392.482 267.5 393.575 266.78C394.682 266.06 395.542 265.093 396.155 263.88C396.782 262.653 397.095 261.287 397.095 259.78C397.095 258.273 396.782 256.913 396.155 255.7C395.542 254.487 394.682 253.52 393.575 252.8C392.482 252.067 391.208 251.7 389.755 251.7C388.302 251.7 387.022 252.067 385.915 252.8C384.822 253.52 383.962 254.487 383.335 255.7C382.722 256.913 382.415 258.273 382.415 259.78ZM376.195 259.78C376.195 257.86 376.535 256.073 377.215 254.42C377.895 252.753 378.848 251.3 380.075 250.06C381.302 248.82 382.742 247.853 384.395 247.16C386.048 246.467 387.835 246.12 389.755 246.12C391.702 246.12 393.495 246.467 395.135 247.16C396.788 247.853 398.222 248.82 399.435 250.06C400.662 251.3 401.608 252.753 402.275 254.42C402.955 256.073 403.295 257.86 403.295 259.78C403.295 261.713 402.968 263.513 402.315 265.18C401.662 266.833 400.728 268.287 399.515 269.54C398.302 270.78 396.868 271.747 395.215 272.44C393.562 273.133 391.742 273.48 389.755 273.48C387.728 273.48 385.882 273.133 384.215 272.44C382.562 271.747 381.135 270.78 379.935 269.54C378.735 268.287 377.808 266.833 377.155 265.18C376.515 263.513 376.195 261.713 376.195 259.78Z" fill="#FFF859"/>
<path d="M242.7 295.6H252.3C253.993 295.6 255.52 295.9 256.88 296.5C258.24 297.087 259.32 297.987 260.12 299.2C260.933 300.4 261.34 301.907 261.34 303.72C261.34 305.52 260.933 307.053 260.12 308.32C259.32 309.573 258.24 310.533 256.88 311.2C255.52 311.853 253.993 312.18 252.3 312.18H248.68V322H242.7V295.6ZM248.68 307.46H250.64C251.453 307.46 252.18 307.34 252.82 307.1C253.473 306.86 253.993 306.48 254.38 305.96C254.767 305.427 254.96 304.727 254.96 303.86C254.96 302.98 254.767 302.287 254.38 301.78C253.993 301.26 253.473 300.887 252.82 300.66C252.18 300.433 251.453 300.32 250.64 300.32H248.68V307.46ZM264.929 295.6H270.909V316.76H280.489V322H264.929V295.6ZM292.939 295.6H298.879L309.299 322H302.919L300.999 316.7H290.839L288.899 322H282.499L292.939 295.6ZM292.839 311.46H299.019L295.959 302.8H295.899L292.839 311.46ZM324.218 316.56C325.445 316.56 326.558 316.38 327.558 316.02C328.571 315.66 329.325 315.307 329.818 314.96L332.378 320.04C331.751 320.573 330.678 321.113 329.158 321.66C327.651 322.207 325.858 322.48 323.778 322.48C321.831 322.48 320.005 322.14 318.298 321.46C316.591 320.78 315.085 319.827 313.778 318.6C312.485 317.36 311.465 315.913 310.718 314.26C309.985 312.593 309.618 310.787 309.618 308.84C309.618 306.893 309.985 305.087 310.718 303.42C311.451 301.74 312.465 300.28 313.758 299.04C315.065 297.8 316.571 296.84 318.278 296.16C319.998 295.467 321.831 295.12 323.778 295.12C325.858 295.12 327.651 295.393 329.158 295.94C330.678 296.487 331.751 297.027 332.378 297.56L329.818 302.64C329.325 302.28 328.571 301.927 327.558 301.58C326.558 301.22 325.445 301.04 324.218 301.04C322.858 301.04 321.671 301.253 320.658 301.68C319.645 302.093 318.798 302.667 318.118 303.4C317.438 304.133 316.931 304.96 316.598 305.88C316.265 306.8 316.098 307.767 316.098 308.78C316.098 309.807 316.265 310.787 316.598 311.72C316.931 312.64 317.438 313.467 318.118 314.2C318.798 314.933 319.645 315.513 320.658 315.94C321.671 316.353 322.858 316.56 324.218 316.56ZM336.019 295.6H352.879V300.84H341.979V306.22H352.779V311.3H341.979V316.76H352.879V322H336.019V295.6Z" fill="#FFF859"/>
<path d="M82.1 256.86C82.652 256.86 83.164 256.912 83.636 257.016C84.108 257.12 84.512 257.244 84.848 257.388C85.184 257.532 85.416 257.652 85.544 257.748L84.608 259.332C84.448 259.196 84.16 259.04 83.744 258.864C83.336 258.688 82.876 258.6 82.364 258.6C81.852 258.6 81.42 258.692 81.068 258.876C80.716 259.06 80.54 259.336 80.54 259.704C80.54 260.064 80.724 260.352 81.092 260.568C81.468 260.784 81.976 260.964 82.616 261.108C83.144 261.228 83.648 261.396 84.128 261.612C84.608 261.82 85 262.12 85.304 262.512C85.616 262.896 85.772 263.412 85.772 264.06C85.772 264.676 85.64 265.192 85.376 265.608C85.12 266.016 84.776 266.344 84.344 266.592C83.912 266.84 83.432 267.016 82.904 267.12C82.384 267.232 81.86 267.288 81.332 267.288C80.684 267.288 80.104 267.224 79.592 267.096C79.088 266.968 78.668 266.82 78.332 266.652C77.996 266.476 77.756 266.328 77.612 266.208L78.548 264.432C78.756 264.632 79.096 264.844 79.568 265.068C80.04 265.284 80.568 265.392 81.152 265.392C81.776 265.392 82.276 265.272 82.652 265.032C83.028 264.792 83.216 264.472 83.216 264.072C83.216 263.776 83.124 263.536 82.94 263.352C82.764 263.168 82.52 263.02 82.208 262.908C81.896 262.796 81.548 262.696 81.164 262.608C80.804 262.52 80.44 262.408 80.072 262.272C79.712 262.128 79.38 261.944 79.076 261.72C78.772 261.488 78.528 261.2 78.344 260.856C78.16 260.512 78.068 260.108 78.068 259.644C78.068 259.052 78.256 258.548 78.632 258.132C79.008 257.716 79.504 257.4 80.12 257.184C80.736 256.968 81.396 256.86 82.1 256.86ZM94.0312 256.86C94.6872 256.86 95.3272 256.996 95.9512 257.268C96.5752 257.54 97.0872 257.976 97.4872 258.576C97.8952 259.168 98.0992 259.94 98.0992 260.892V267H95.5192V261.36C95.5192 260.472 95.3152 259.82 94.9072 259.404C94.5072 258.98 93.9752 258.768 93.3112 258.768C92.8712 258.768 92.4472 258.892 92.0392 259.14C91.6312 259.388 91.2952 259.724 91.0312 260.148C90.7752 260.572 90.6472 261.06 90.6472 261.612V267H88.0672V250.488H90.6472V258.804C90.7192 258.532 90.9112 258.248 91.2232 257.952C91.5432 257.648 91.9472 257.392 92.4352 257.184C92.9232 256.968 93.4552 256.86 94.0312 256.86ZM105.427 267.288C104.395 267.288 103.475 267.064 102.667 266.616C101.867 266.16 101.239 265.544 100.783 264.768C100.327 263.984 100.099 263.096 100.099 262.104C100.099 261.112 100.327 260.22 100.783 259.428C101.239 258.636 101.867 258.012 102.667 257.556C103.475 257.092 104.395 256.86 105.427 256.86C106.459 256.86 107.371 257.092 108.163 257.556C108.955 258.012 109.575 258.636 110.023 259.428C110.479 260.22 110.707 261.112 110.707 262.104C110.707 263.096 110.479 263.984 110.023 264.768C109.575 265.544 108.955 266.16 108.163 266.616C107.371 267.064 106.459 267.288 105.427 267.288ZM105.427 265.128C106.003 265.128 106.503 264.996 106.927 264.732C107.351 264.468 107.679 264.108 107.911 263.652C108.143 263.196 108.259 262.676 108.259 262.092C108.259 261.508 108.143 260.988 107.911 260.532C107.679 260.068 107.351 259.7 106.927 259.428C106.503 259.156 106.003 259.02 105.427 259.02C104.851 259.02 104.347 259.156 103.915 259.428C103.491 259.7 103.159 260.068 102.919 260.532C102.687 260.988 102.571 261.508 102.571 262.092C102.571 262.676 102.687 263.196 102.919 263.652C103.159 264.108 103.491 264.468 103.915 264.732C104.347 264.996 104.851 265.128 105.427 265.128ZM115.288 261.984C115.288 262.944 115.484 263.708 115.876 264.276C116.276 264.844 116.904 265.128 117.76 265.128C118.624 265.128 119.252 264.844 119.644 264.276C120.036 263.708 120.232 262.944 120.232 261.984V257.148H122.776V262.308C122.776 263.3 122.58 264.172 122.188 264.924C121.796 265.668 121.228 266.248 120.484 266.664C119.74 267.08 118.832 267.288 117.76 267.288C116.696 267.288 115.792 267.08 115.048 266.664C114.304 266.248 113.736 265.668 113.344 264.924C112.952 264.172 112.756 263.3 112.756 262.308V257.148H115.288V261.984ZM128.054 267H125.474V250.488H128.054V267ZM135.16 267.288C134.232 267.288 133.412 267.068 132.7 266.628C131.988 266.188 131.428 265.576 131.02 264.792C130.62 264.008 130.42 263.104 130.42 262.08C130.42 261.056 130.62 260.152 131.02 259.368C131.428 258.584 131.988 257.972 132.7 257.532C133.412 257.084 134.232 256.86 135.16 256.86C135.848 256.86 136.46 256.98 136.996 257.22C137.532 257.452 137.96 257.724 138.28 258.036C138.6 258.348 138.788 258.624 138.844 258.864V250.488H141.412V267H138.88V265.176C138.768 265.456 138.54 265.76 138.196 266.088C137.852 266.416 137.416 266.7 136.888 266.94C136.368 267.172 135.792 267.288 135.16 267.288ZM135.82 265.212C136.38 265.212 136.888 265.08 137.344 264.816C137.8 264.552 138.164 264.188 138.436 263.724C138.708 263.252 138.844 262.704 138.844 262.08C138.844 261.456 138.708 260.912 138.436 260.448C138.164 259.976 137.8 259.608 137.344 259.344C136.888 259.072 136.38 258.936 135.82 258.936C135.308 258.936 134.832 259.068 134.392 259.332C133.96 259.588 133.612 259.952 133.348 260.424C133.084 260.896 132.952 261.448 132.952 262.08C132.952 262.712 133.084 263.264 133.348 263.736C133.612 264.208 133.96 264.572 134.392 264.828C134.832 265.084 135.308 265.212 135.82 265.212ZM149.718 267V250.488H152.286V258.864C152.342 258.624 152.53 258.348 152.85 258.036C153.17 257.724 153.598 257.452 154.134 257.22C154.67 256.98 155.282 256.86 155.97 256.86C156.898 256.86 157.718 257.084 158.43 257.532C159.142 257.972 159.698 258.584 160.098 259.368C160.506 260.152 160.71 261.056 160.71 262.08C160.71 263.104 160.506 264.008 160.098 264.792C159.698 265.576 159.142 266.188 158.43 266.628C157.718 267.068 156.898 267.288 155.97 267.288C155.338 267.288 154.758 267.172 154.23 266.94C153.71 266.7 153.278 266.416 152.934 266.088C152.59 265.76 152.362 265.456 152.25 265.176V267H149.718ZM158.178 262.08C158.178 261.448 158.046 260.896 157.782 260.424C157.518 259.952 157.17 259.588 156.738 259.332C156.306 259.068 155.83 258.936 155.31 258.936C154.75 258.936 154.242 259.072 153.786 259.344C153.33 259.608 152.966 259.976 152.694 260.448C152.422 260.912 152.286 261.456 152.286 262.08C152.286 262.704 152.422 263.252 152.694 263.724C152.966 264.188 153.33 264.552 153.786 264.816C154.242 265.08 154.75 265.212 155.31 265.212C155.83 265.212 156.306 265.084 156.738 264.828C157.17 264.572 157.518 264.208 157.782 263.736C158.046 263.264 158.178 262.712 158.178 262.08ZM164.35 262.68C164.366 263.2 164.49 263.668 164.722 264.084C164.954 264.5 165.294 264.828 165.742 265.068C166.198 265.3 166.754 265.416 167.41 265.416C167.978 265.416 168.466 265.34 168.874 265.188C169.29 265.028 169.634 264.84 169.906 264.624C170.178 264.4 170.378 264.192 170.506 264L171.646 265.548C171.398 265.884 171.086 266.184 170.71 266.448C170.334 266.712 169.866 266.916 169.306 267.06C168.754 267.212 168.07 267.288 167.254 267.288C166.182 267.288 165.25 267.068 164.458 266.628C163.666 266.188 163.05 265.568 162.61 264.768C162.178 263.968 161.962 263.032 161.962 261.96C161.962 261 162.162 260.136 162.562 259.368C162.962 258.592 163.542 257.98 164.302 257.532C165.07 257.084 165.99 256.86 167.062 256.86C168.062 256.86 168.93 257.06 169.666 257.46C170.402 257.86 170.97 258.436 171.37 259.188C171.778 259.932 171.982 260.832 171.982 261.888C171.982 261.952 171.978 262.084 171.97 262.284C171.97 262.484 171.962 262.616 171.946 262.68H164.35ZM169.582 260.808C169.574 260.552 169.486 260.26 169.318 259.932C169.158 259.604 168.898 259.32 168.538 259.08C168.178 258.832 167.698 258.708 167.098 258.708C166.482 258.708 165.982 258.828 165.598 259.068C165.214 259.3 164.93 259.58 164.746 259.908C164.562 260.228 164.454 260.528 164.422 260.808H169.582ZM184.17 256.86C184.722 256.86 185.234 256.912 185.706 257.016C186.178 257.12 186.582 257.244 186.918 257.388C187.254 257.532 187.486 257.652 187.614 257.748L186.678 259.332C186.518 259.196 186.23 259.04 185.814 258.864C185.406 258.688 184.946 258.6 184.434 258.6C183.922 258.6 183.49 258.692 183.138 258.876C182.786 259.06 182.61 259.336 182.61 259.704C182.61 260.064 182.794 260.352 183.162 260.568C183.538 260.784 184.046 260.964 184.686 261.108C185.214 261.228 185.718 261.396 186.198 261.612C186.678 261.82 187.07 262.12 187.374 262.512C187.686 262.896 187.842 263.412 187.842 264.06C187.842 264.676 187.71 265.192 187.446 265.608C187.19 266.016 186.846 266.344 186.414 266.592C185.982 266.84 185.502 267.016 184.974 267.12C184.454 267.232 183.93 267.288 183.402 267.288C182.754 267.288 182.174 267.224 181.662 267.096C181.158 266.968 180.738 266.82 180.402 266.652C180.066 266.476 179.826 266.328 179.682 266.208L180.618 264.432C180.826 264.632 181.166 264.844 181.638 265.068C182.11 265.284 182.638 265.392 183.222 265.392C183.846 265.392 184.346 265.272 184.722 265.032C185.098 264.792 185.286 264.472 185.286 264.072C185.286 263.776 185.194 263.536 185.01 263.352C184.834 263.168 184.59 263.02 184.278 262.908C183.966 262.796 183.618 262.696 183.234 262.608C182.874 262.52 182.51 262.408 182.142 262.272C181.782 262.128 181.45 261.944 181.146 261.72C180.842 261.488 180.598 261.2 180.414 260.856C180.23 260.512 180.138 260.108 180.138 259.644C180.138 259.052 180.326 258.548 180.702 258.132C181.078 257.716 181.574 257.4 182.19 257.184C182.806 256.968 183.466 256.86 184.17 256.86ZM194.818 267.288C193.786 267.288 192.866 267.064 192.058 266.616C191.258 266.16 190.63 265.544 190.174 264.768C189.718 263.984 189.49 263.096 189.49 262.104C189.49 261.112 189.718 260.22 190.174 259.428C190.63 258.636 191.258 258.012 192.058 257.556C192.866 257.092 193.786 256.86 194.818 256.86C195.85 256.86 196.762 257.092 197.554 257.556C198.346 258.012 198.966 258.636 199.414 259.428C199.87 260.22 200.098 261.112 200.098 262.104C200.098 263.096 199.87 263.984 199.414 264.768C198.966 265.544 198.346 266.16 197.554 266.616C196.762 267.064 195.85 267.288 194.818 267.288ZM194.818 265.128C195.394 265.128 195.894 264.996 196.318 264.732C196.742 264.468 197.07 264.108 197.302 263.652C197.534 263.196 197.65 262.676 197.65 262.092C197.65 261.508 197.534 260.988 197.302 260.532C197.07 260.068 196.742 259.7 196.318 259.428C195.894 259.156 195.394 259.02 194.818 259.02C194.242 259.02 193.738 259.156 193.306 259.428C192.882 259.7 192.55 260.068 192.31 260.532C192.078 260.988 191.962 261.508 191.962 262.092C191.962 262.676 192.078 263.196 192.31 263.652C192.55 264.108 192.882 264.468 193.306 264.732C193.738 264.996 194.242 265.128 194.818 265.128ZM214.614 256.86C215.35 256.86 215.982 257.016 216.51 257.328C217.046 257.64 217.458 258.12 217.746 258.768C218.042 259.416 218.19 260.244 218.19 261.252V267H215.658V261.708C215.658 260.756 215.522 260.032 215.25 259.536C214.986 259.04 214.486 258.792 213.75 258.792C213.35 258.792 212.974 258.9 212.622 259.116C212.27 259.332 211.986 259.656 211.77 260.088C211.562 260.512 211.458 261.052 211.458 261.708V267H209.082V261.708C209.082 260.756 208.918 260.032 208.59 259.536C208.27 259.04 207.79 258.792 207.15 258.792C206.742 258.792 206.366 258.896 206.022 259.104C205.678 259.312 205.402 259.632 205.194 260.064C204.986 260.496 204.882 261.044 204.882 261.708V267H202.338V257.148H204.882V258.624C204.97 258.376 205.166 258.116 205.47 257.844C205.782 257.572 206.17 257.34 206.634 257.148C207.098 256.956 207.606 256.86 208.158 256.86C208.758 256.86 209.254 256.972 209.646 257.196C210.046 257.412 210.362 257.684 210.594 258.012C210.834 258.34 211.01 258.668 211.122 258.996C211.234 258.668 211.45 258.34 211.77 258.012C212.098 257.684 212.506 257.412 212.994 257.196C213.482 256.972 214.022 256.86 214.614 256.86ZM222.616 262.68C222.632 263.2 222.756 263.668 222.988 264.084C223.22 264.5 223.56 264.828 224.008 265.068C224.464 265.3 225.02 265.416 225.676 265.416C226.244 265.416 226.732 265.34 227.14 265.188C227.556 265.028 227.9 264.84 228.172 264.624C228.444 264.4 228.644 264.192 228.772 264L229.912 265.548C229.664 265.884 229.352 266.184 228.976 266.448C228.6 266.712 228.132 266.916 227.572 267.06C227.02 267.212 226.336 267.288 225.52 267.288C224.448 267.288 223.516 267.068 222.724 266.628C221.932 266.188 221.316 265.568 220.876 264.768C220.444 263.968 220.228 263.032 220.228 261.96C220.228 261 220.428 260.136 220.828 259.368C221.228 258.592 221.808 257.98 222.568 257.532C223.336 257.084 224.256 256.86 225.328 256.86C226.328 256.86 227.196 257.06 227.932 257.46C228.668 257.86 229.236 258.436 229.636 259.188C230.044 259.932 230.248 260.832 230.248 261.888C230.248 261.952 230.244 262.084 230.236 262.284C230.236 262.484 230.228 262.616 230.212 262.68H222.616ZM227.848 260.808C227.84 260.552 227.752 260.26 227.584 259.932C227.424 259.604 227.164 259.32 226.804 259.08C226.444 258.832 225.964 258.708 225.364 258.708C224.748 258.708 224.248 258.828 223.864 259.068C223.48 259.3 223.196 259.58 223.012 259.908C222.828 260.228 222.72 260.528 222.688 260.808H227.848ZM237.122 267.288C236.09 267.288 235.17 267.064 234.362 266.616C233.562 266.16 232.934 265.544 232.478 264.768C232.022 263.984 231.794 263.096 231.794 262.104C231.794 261.112 232.022 260.22 232.478 259.428C232.934 258.636 233.562 258.012 234.362 257.556C235.17 257.092 236.09 256.86 237.122 256.86C238.154 256.86 239.066 257.092 239.858 257.556C240.65 258.012 241.27 258.636 241.718 259.428C242.174 260.22 242.402 261.112 242.402 262.104C242.402 263.096 242.174 263.984 241.718 264.768C241.27 265.544 240.65 266.16 239.858 266.616C239.066 267.064 238.154 267.288 237.122 267.288ZM237.122 265.128C237.698 265.128 238.198 264.996 238.622 264.732C239.046 264.468 239.374 264.108 239.606 263.652C239.838 263.196 239.954 262.676 239.954 262.092C239.954 261.508 239.838 260.988 239.606 260.532C239.374 260.068 239.046 259.7 238.622 259.428C238.198 259.156 237.698 259.02 237.122 259.02C236.546 259.02 236.042 259.156 235.61 259.428C235.186 259.7 234.854 260.068 234.614 260.532C234.382 260.988 234.266 261.508 234.266 262.092C234.266 262.676 234.382 263.196 234.614 263.652C234.854 264.108 235.186 264.468 235.61 264.732C236.042 264.996 236.546 265.128 237.122 265.128ZM250.463 256.86C251.127 256.86 251.771 256.996 252.395 257.268C253.019 257.54 253.531 257.976 253.931 258.576C254.339 259.168 254.543 259.94 254.543 260.892V267H251.963V261.36C251.963 260.472 251.751 259.82 251.327 259.404C250.911 258.98 250.371 258.768 249.707 258.768C249.267 258.768 248.847 258.892 248.447 259.14C248.047 259.388 247.719 259.724 247.463 260.148C247.215 260.572 247.091 261.06 247.091 261.612V267H244.523V257.148H247.091V258.804C247.163 258.532 247.355 258.248 247.667 257.952C247.987 257.648 248.391 257.392 248.879 257.184C249.367 256.968 249.895 256.86 250.463 256.86ZM258.874 262.68C258.89 263.2 259.014 263.668 259.246 264.084C259.478 264.5 259.818 264.828 260.266 265.068C260.722 265.3 261.278 265.416 261.934 265.416C262.502 265.416 262.99 265.34 263.398 265.188C263.814 265.028 264.158 264.84 264.43 264.624C264.702 264.4 264.902 264.192 265.03 264L266.17 265.548C265.922 265.884 265.61 266.184 265.234 266.448C264.858 266.712 264.39 266.916 263.83 267.06C263.278 267.212 262.594 267.288 261.778 267.288C260.706 267.288 259.774 267.068 258.982 266.628C258.19 266.188 257.574 265.568 257.134 264.768C256.702 263.968 256.486 263.032 256.486 261.96C256.486 261 256.686 260.136 257.086 259.368C257.486 258.592 258.066 257.98 258.826 257.532C259.594 257.084 260.514 256.86 261.586 256.86C262.586 256.86 263.454 257.06 264.19 257.46C264.926 257.86 265.494 258.436 265.894 259.188C266.302 259.932 266.506 260.832 266.506 261.888C266.506 261.952 266.502 262.084 266.494 262.284C266.494 262.484 266.486 262.616 266.47 262.68H258.874ZM264.106 260.808C264.098 260.552 264.01 260.26 263.842 259.932C263.682 259.604 263.422 259.32 263.062 259.08C262.702 258.832 262.222 258.708 261.622 258.708C261.006 258.708 260.506 258.828 260.122 259.068C259.738 259.3 259.454 259.58 259.27 259.908C259.086 260.228 258.978 260.528 258.946 260.808H264.106ZM281.598 260.136L279.162 267H276.642L273.786 257.148H276.51L278.226 264.228L280.638 257.34H282.57L284.958 264.228L286.698 257.148H289.422L286.578 267H284.058L281.598 260.136ZM293.624 267H291.068V257.148H293.624V258.792H293.564C293.62 258.592 293.772 258.344 294.02 258.048C294.276 257.744 294.628 257.472 295.076 257.232C295.524 256.984 296.064 256.86 296.696 256.86C297.152 256.86 297.56 256.924 297.92 257.052C298.28 257.18 298.536 257.308 298.688 257.436L297.656 259.548C297.552 259.42 297.356 259.296 297.068 259.176C296.788 259.048 296.44 258.984 296.024 258.984C295.504 258.984 295.064 259.136 294.704 259.44C294.352 259.744 294.084 260.108 293.9 260.532C293.716 260.956 293.624 261.352 293.624 261.72V267ZM300.122 267V257.148H302.678V267H300.122ZM301.43 254.196C300.998 254.196 300.626 254.04 300.314 253.728C300.01 253.416 299.858 253.044 299.858 252.612C299.858 252.18 300.01 251.808 300.314 251.496C300.626 251.176 300.998 251.016 301.43 251.016C301.718 251.016 301.982 251.092 302.222 251.244C302.47 251.388 302.666 251.58 302.81 251.82C302.962 252.052 303.038 252.316 303.038 252.612C303.038 253.044 302.882 253.416 302.57 253.728C302.258 254.04 301.878 254.196 301.43 254.196ZM304.832 257.148H306.68V253.104H309.224V257.148H311.66V259.308H309.224V263.52C309.224 264.048 309.312 264.444 309.488 264.708C309.672 264.972 309.932 265.104 310.268 265.104C310.548 265.104 310.768 265.052 310.928 264.948C311.096 264.844 311.196 264.772 311.228 264.732L312.176 266.592C312.128 266.64 311.988 266.72 311.756 266.832C311.524 266.944 311.224 267.048 310.856 267.144C310.488 267.24 310.068 267.288 309.596 267.288C308.764 267.288 308.068 267.04 307.508 266.544C306.956 266.048 306.68 265.272 306.68 264.216V259.308H304.832V257.148ZM314.044 267V257.148H316.6V267H314.044ZM315.352 254.196C314.92 254.196 314.548 254.04 314.236 253.728C313.932 253.416 313.78 253.044 313.78 252.612C313.78 252.18 313.932 251.808 314.236 251.496C314.548 251.176 314.92 251.016 315.352 251.016C315.64 251.016 315.904 251.092 316.144 251.244C316.392 251.388 316.588 251.58 316.732 251.82C316.884 252.052 316.96 252.316 316.96 252.612C316.96 253.044 316.804 253.416 316.492 253.728C316.18 254.04 315.8 254.196 315.352 254.196ZM325.486 256.86C326.15 256.86 326.794 256.996 327.418 257.268C328.042 257.54 328.554 257.976 328.954 258.576C329.362 259.168 329.566 259.94 329.566 260.892V267H326.986V261.36C326.986 260.472 326.774 259.82 326.35 259.404C325.934 258.98 325.394 258.768 324.73 258.768C324.29 258.768 323.87 258.892 323.47 259.14C323.07 259.388 322.742 259.724 322.486 260.148C322.238 260.572 322.114 261.06 322.114 261.612V267H319.546V257.148H322.114V258.804C322.186 258.532 322.378 258.248 322.69 257.952C323.01 257.648 323.414 257.392 323.902 257.184C324.39 256.968 324.918 256.86 325.486 256.86ZM336.981 272.268C336.229 272.268 335.529 272.192 334.881 272.04C334.241 271.896 333.669 271.676 333.165 271.38C332.661 271.092 332.253 270.736 331.941 270.312L333.537 268.728C333.705 268.936 333.921 269.152 334.185 269.376C334.449 269.608 334.797 269.8 335.229 269.952C335.661 270.112 336.209 270.192 336.873 270.192C337.521 270.192 338.073 270.06 338.529 269.796C338.993 269.532 339.345 269.168 339.585 268.704C339.833 268.248 339.957 267.72 339.957 267.12V266.82H342.477V267.276C342.477 268.364 342.233 269.276 341.745 270.012C341.257 270.756 340.597 271.316 339.765 271.692C338.933 272.076 338.005 272.268 336.981 272.268ZM339.957 267V265.176C339.893 265.368 339.709 265.632 339.405 265.968C339.109 266.304 338.701 266.608 338.181 266.88C337.669 267.152 337.061 267.288 336.357 267.288C335.437 267.288 334.609 267.068 333.873 266.628C333.137 266.188 332.557 265.576 332.133 264.792C331.709 264.008 331.497 263.104 331.497 262.08C331.497 261.056 331.709 260.152 332.133 259.368C332.557 258.584 333.137 257.972 333.873 257.532C334.609 257.084 335.437 256.86 336.357 256.86C337.045 256.86 337.641 256.98 338.145 257.22C338.649 257.46 339.053 257.736 339.357 258.048C339.669 258.36 339.861 258.632 339.933 258.864V257.148H342.477V267H339.957ZM334.029 262.08C334.029 262.712 334.169 263.264 334.449 263.736C334.729 264.208 335.093 264.572 335.541 264.828C335.997 265.084 336.485 265.212 337.005 265.212C337.565 265.212 338.061 265.08 338.493 264.816C338.933 264.552 339.277 264.188 339.525 263.724C339.781 263.252 339.909 262.704 339.909 262.08C339.909 261.456 339.781 260.912 339.525 260.448C339.277 259.976 338.933 259.608 338.493 259.344C338.061 259.072 337.565 258.936 337.005 258.936C336.485 258.936 335.997 259.068 335.541 259.332C335.093 259.588 334.729 259.952 334.449 260.424C334.169 260.896 334.029 261.448 334.029 262.08Z" fill="#FBFEF0" fill-opacity="0.8"/>
<path d="M185.348 209.148H187.196V205.104H189.74V209.148H192.176V211.308H189.74V215.52C189.74 216.048 189.828 216.444 190.004 216.708C190.188 216.972 190.448 217.104 190.784 217.104C191.064 217.104 191.284 217.052 191.444 216.948C191.612 216.844 191.712 216.772 191.744 216.732L192.692 218.592C192.644 218.64 192.504 218.72 192.272 218.832C192.04 218.944 191.74 219.048 191.372 219.144C191.004 219.24 190.584 219.288 190.112 219.288C189.28 219.288 188.584 219.04 188.024 218.544C187.472 218.048 187.196 217.272 187.196 216.216V211.308H185.348V209.148ZM200.344 208.86C201 208.86 201.64 208.996 202.264 209.268C202.888 209.54 203.4 209.976 203.8 210.576C204.208 211.168 204.412 211.94 204.412 212.892V219H201.832V213.36C201.832 212.472 201.628 211.82 201.22 211.404C200.82 210.98 200.288 210.768 199.624 210.768C199.184 210.768 198.76 210.892 198.352 211.14C197.944 211.388 197.608 211.724 197.344 212.148C197.088 212.572 196.96 213.06 196.96 213.612V219H194.38V202.488H196.96V210.804C197.032 210.532 197.224 210.248 197.536 209.952C197.856 209.648 198.26 209.392 198.748 209.184C199.236 208.968 199.768 208.86 200.344 208.86ZM208.811 214.68C208.827 215.2 208.951 215.668 209.183 216.084C209.415 216.5 209.755 216.828 210.203 217.068C210.659 217.3 211.215 217.416 211.871 217.416C212.439 217.416 212.927 217.34 213.335 217.188C213.751 217.028 214.095 216.84 214.367 216.624C214.639 216.4 214.839 216.192 214.967 216L216.107 217.548C215.859 217.884 215.547 218.184 215.171 218.448C214.795 218.712 214.327 218.916 213.767 219.06C213.215 219.212 212.531 219.288 211.715 219.288C210.643 219.288 209.711 219.068 208.919 218.628C208.127 218.188 207.511 217.568 207.071 216.768C206.639 215.968 206.423 215.032 206.423 213.96C206.423 213 206.623 212.136 207.023 211.368C207.423 210.592 208.003 209.98 208.763 209.532C209.531 209.084 210.451 208.86 211.523 208.86C212.523 208.86 213.391 209.06 214.127 209.46C214.863 209.86 215.431 210.436 215.831 211.188C216.239 211.932 216.443 212.832 216.443 213.888C216.443 213.952 216.439 214.084 216.431 214.284C216.431 214.484 216.423 214.616 216.407 214.68H208.811ZM214.043 212.808C214.035 212.552 213.947 212.26 213.779 211.932C213.619 211.604 213.359 211.32 212.999 211.08C212.639 210.832 212.159 210.708 211.559 210.708C210.943 210.708 210.443 210.828 210.059 211.068C209.675 211.3 209.391 211.58 209.207 211.908C209.023 212.228 208.915 212.528 208.883 212.808H214.043ZM221.062 219H218.506V209.148H221.062V210.792H221.002C221.058 210.592 221.21 210.344 221.458 210.048C221.714 209.744 222.066 209.472 222.514 209.232C222.962 208.984 223.502 208.86 224.134 208.86C224.59 208.86 224.998 208.924 225.358 209.052C225.718 209.18 225.974 209.308 226.126 209.436L225.094 211.548C224.99 211.42 224.794 211.296 224.506 211.176C224.226 211.048 223.878 210.984 223.462 210.984C222.942 210.984 222.502 211.136 222.142 211.44C221.79 211.744 221.522 212.108 221.338 212.532C221.154 212.956 221.062 213.352 221.062 213.72V219ZM228.897 214.68C228.913 215.2 229.037 215.668 229.269 216.084C229.501 216.5 229.841 216.828 230.289 217.068C230.745 217.3 231.301 217.416 231.957 217.416C232.525 217.416 233.013 217.34 233.421 217.188C233.837 217.028 234.181 216.84 234.453 216.624C234.725 216.4 234.925 216.192 235.053 216L236.193 217.548C235.945 217.884 235.633 218.184 235.257 218.448C234.881 218.712 234.413 218.916 233.853 219.06C233.301 219.212 232.617 219.288 231.801 219.288C230.729 219.288 229.797 219.068 229.005 218.628C228.213 218.188 227.597 217.568 227.157 216.768C226.725 215.968 226.509 215.032 226.509 213.96C226.509 213 226.709 212.136 227.109 211.368C227.509 210.592 228.089 209.98 228.849 209.532C229.617 209.084 230.537 208.86 231.609 208.86C232.609 208.86 233.477 209.06 234.213 209.46C234.949 209.86 235.517 210.436 235.917 211.188C236.325 211.932 236.529 212.832 236.529 213.888C236.529 213.952 236.525 214.084 236.517 214.284C236.517 214.484 236.509 214.616 236.493 214.68H228.897ZM234.129 212.808C234.121 212.552 234.033 212.26 233.865 211.932C233.705 211.604 233.445 211.32 233.085 211.08C232.725 210.832 232.245 210.708 231.645 210.708C231.029 210.708 230.529 210.828 230.145 211.068C229.761 211.3 229.477 211.58 229.293 211.908C229.109 212.228 229.001 212.528 228.969 212.808H234.129Z" fill="#FBFEF0" fill-opacity="0.8"/>
<path d="M194.048 315.212C194.616 315.212 195.076 315.12 195.428 314.936C195.788 314.744 196.02 314.604 196.124 314.516L197.336 316.316C197.24 316.396 197.04 316.516 196.736 316.676C196.432 316.828 196.044 316.968 195.572 317.096C195.108 317.224 194.58 317.288 193.988 317.288C193.012 317.288 192.124 317.084 191.324 316.676C190.532 316.26 189.896 315.664 189.416 314.888C188.944 314.104 188.708 313.164 188.708 312.068C188.708 310.964 188.944 310.024 189.416 309.248C189.896 308.472 190.532 307.88 191.324 307.472C192.124 307.064 193.012 306.86 193.988 306.86C194.572 306.86 195.092 306.928 195.548 307.064C196.012 307.192 196.396 307.34 196.7 307.508C197.004 307.676 197.208 307.808 197.312 307.904L196.076 309.704C196.02 309.648 195.904 309.56 195.728 309.44C195.56 309.312 195.336 309.196 195.056 309.092C194.776 308.988 194.44 308.936 194.048 308.936C193.568 308.936 193.108 309.064 192.668 309.32C192.228 309.576 191.868 309.94 191.588 310.412C191.308 310.876 191.168 311.428 191.168 312.068C191.168 312.708 191.308 313.264 191.588 313.736C191.868 314.208 192.228 314.572 192.668 314.828C193.108 315.084 193.568 315.212 194.048 315.212ZM203.911 317.288C202.879 317.288 201.959 317.064 201.151 316.616C200.351 316.16 199.723 315.544 199.267 314.768C198.811 313.984 198.583 313.096 198.583 312.104C198.583 311.112 198.811 310.22 199.267 309.428C199.723 308.636 200.351 308.012 201.151 307.556C201.959 307.092 202.879 306.86 203.911 306.86C204.943 306.86 205.855 307.092 206.647 307.556C207.439 308.012 208.059 308.636 208.507 309.428C208.963 310.22 209.191 311.112 209.191 312.104C209.191 313.096 208.963 313.984 208.507 314.768C208.059 315.544 207.439 316.16 206.647 316.616C205.855 317.064 204.943 317.288 203.911 317.288ZM203.911 315.128C204.487 315.128 204.987 314.996 205.411 314.732C205.835 314.468 206.163 314.108 206.395 313.652C206.627 313.196 206.743 312.676 206.743 312.092C206.743 311.508 206.627 310.988 206.395 310.532C206.163 310.068 205.835 309.7 205.411 309.428C204.987 309.156 204.487 309.02 203.911 309.02C203.335 309.02 202.831 309.156 202.399 309.428C201.975 309.7 201.643 310.068 201.403 310.532C201.171 310.988 201.055 311.508 201.055 312.092C201.055 312.676 201.171 313.196 201.403 313.652C201.643 314.108 201.975 314.468 202.399 314.732C202.831 314.996 203.335 315.128 203.911 315.128ZM215.668 317.288C214.74 317.288 213.92 317.068 213.208 316.628C212.496 316.188 211.936 315.576 211.528 314.792C211.128 314.008 210.928 313.104 210.928 312.08C210.928 311.056 211.128 310.152 211.528 309.368C211.936 308.584 212.496 307.972 213.208 307.532C213.92 307.084 214.74 306.86 215.668 306.86C216.356 306.86 216.968 306.98 217.504 307.22C218.04 307.452 218.468 307.724 218.788 308.036C219.108 308.348 219.296 308.624 219.352 308.864V300.488H221.92V317H219.388V315.176C219.276 315.456 219.048 315.76 218.704 316.088C218.36 316.416 217.924 316.7 217.396 316.94C216.876 317.172 216.3 317.288 215.668 317.288ZM216.328 315.212C216.888 315.212 217.396 315.08 217.852 314.816C218.308 314.552 218.672 314.188 218.944 313.724C219.216 313.252 219.352 312.704 219.352 312.08C219.352 311.456 219.216 310.912 218.944 310.448C218.672 309.976 218.308 309.608 217.852 309.344C217.396 309.072 216.888 308.936 216.328 308.936C215.816 308.936 215.34 309.068 214.9 309.332C214.468 309.588 214.12 309.952 213.856 310.424C213.592 310.896 213.46 311.448 213.46 312.08C213.46 312.712 213.592 313.264 213.856 313.736C214.12 314.208 214.468 314.572 214.9 314.828C215.34 315.084 215.816 315.212 216.328 315.212ZM225.944 312.68C225.96 313.2 226.084 313.668 226.316 314.084C226.548 314.5 226.888 314.828 227.336 315.068C227.792 315.3 228.348 315.416 229.004 315.416C229.572 315.416 230.06 315.34 230.468 315.188C230.884 315.028 231.228 314.84 231.5 314.624C231.772 314.4 231.972 314.192 232.1 314L233.24 315.548C232.992 315.884 232.68 316.184 232.304 316.448C231.928 316.712 231.46 316.916 230.9 317.06C230.348 317.212 229.664 317.288 228.848 317.288C227.776 317.288 226.844 317.068 226.052 316.628C225.26 316.188 224.644 315.568 224.204 314.768C223.772 313.968 223.556 313.032 223.556 311.96C223.556 311 223.756 310.136 224.156 309.368C224.556 308.592 225.136 307.98 225.896 307.532C226.664 307.084 227.584 306.86 228.656 306.86C229.656 306.86 230.524 307.06 231.26 307.46C231.996 307.86 232.564 308.436 232.964 309.188C233.372 309.932 233.576 310.832 233.576 311.888C233.576 311.952 233.572 312.084 233.564 312.284C233.564 312.484 233.556 312.616 233.54 312.68H225.944ZM231.176 310.808C231.168 310.552 231.08 310.26 230.912 309.932C230.752 309.604 230.492 309.32 230.132 309.08C229.772 308.832 229.292 308.708 228.692 308.708C228.076 308.708 227.576 308.828 227.192 309.068C226.808 309.3 226.524 309.58 226.34 309.908C226.156 310.228 226.048 310.528 226.016 310.808H231.176Z" fill="#FBFEF0" fill-opacity="0.8"/>
</svg>
