<svg width="100" height="100" viewBox="0 0 100 100" fill="none" xmlns="http://www.w3.org/2000/svg">
<path d="M92.2852 40.2344H67.2852C66.8555 40.2344 66.5039 40.5859 66.5039 41.0156V45.7031C66.5039 46.1328 66.8555 46.4844 67.2852 46.4844H92.2852C92.7148 46.4844 93.0664 46.1328 93.0664 45.7031V41.0156C93.0664 40.5859 92.7148 40.2344 92.2852 40.2344ZM79.1992 53.5156H67.2852C66.8555 53.5156 66.5039 53.8672 66.5039 54.2969V58.9844C66.5039 59.4141 66.8555 59.7656 67.2852 59.7656H79.1992C79.6289 59.7656 79.9805 59.4141 79.9805 58.9844V54.2969C79.9805 53.8672 79.6289 53.5156 79.1992 53.5156ZM46.6113 31.4941H42.3828C41.7773 31.4941 41.2891 31.9824 41.2891 32.5879V56.8066C41.2891 57.1582 41.4551 57.4805 41.7383 57.6855L56.2793 68.291C56.7676 68.6426 57.4512 68.5449 57.8027 68.0566L60.3125 64.6289V64.6191C60.6641 64.1309 60.5566 63.4473 60.0684 63.0957L47.6953 54.1504V32.5879C47.7051 31.9824 47.207 31.4941 46.6113 31.4941V31.4941Z" fill="#fff0b5"/>
<path d="M78.5938 65.8105H72.9493C72.4024 65.8105 71.8848 66.0937 71.5919 66.5625C70.3516 68.5254 68.9063 70.3418 67.2462 72.0019C64.3848 74.8633 61.0548 77.1094 57.3536 78.6719C53.5157 80.293 49.4434 81.1133 45.2442 81.1133C41.0352 81.1133 36.963 80.293 33.1348 78.6719C29.4337 77.1094 26.1036 74.8633 23.2423 72.0019C20.3809 69.1406 18.1348 65.8105 16.5723 62.1094C14.9512 58.2812 14.1309 54.209 14.1309 50C14.1309 45.791 14.9512 41.7285 16.5723 37.8906C18.1348 34.1894 20.3809 30.8594 23.2423 27.998C26.1036 25.1367 29.4337 22.8906 33.1348 21.3281C36.963 19.707 41.045 18.8867 45.2442 18.8867C49.4532 18.8867 53.5255 19.707 57.3536 21.3281C61.0548 22.8906 64.3848 25.1367 67.2462 27.998C68.9063 29.6582 70.3516 31.4746 71.5919 33.4375C71.8848 33.9062 72.4024 34.1894 72.9493 34.1894H78.5938C79.2676 34.1894 79.6973 33.4863 79.3946 32.8906C73.0274 20.2246 60.1173 11.9922 45.7032 11.8262C24.5997 11.5625 7.07038 28.8379 7.03132 49.9219C6.99225 71.0449 24.1114 88.1836 45.2344 88.1836C59.8341 88.1836 72.9591 79.9219 79.3946 67.1094C79.6973 66.5137 79.2579 65.8105 78.5938 65.8105V65.8105Z" fill="#fff0b5"/>
</svg>
